<svg viewBox="0 0 24 24" fill="none" xmlns="http://www.w3.org/2000/svg">
<g clip-path="url(#clip0_1355_61849)">
<path fill-rule="evenodd" clip-rule="evenodd" d="M0 0H24V24H0V0Z" fill="url(#paint0_linear_1355_61849)"/>
<path fill-rule="evenodd" clip-rule="evenodd" d="M20.4001 11.7917C20.4001 13.8703 18.98 14.6328 18.1338 14.9025L17.9538 14.3304C18.7981 14.0616 19.8044 13.403 19.8044 11.7917C19.8044 9.75429 18.1369 9.24573 17.4203 9.12141C17.2604 9.09381 17.1522 8.94237 17.1759 8.78109C17.1051 7.85277 16.6734 7.18509 16.0172 6.99189C15.4722 6.83181 14.8868 7.04397 14.5278 7.53429C14.4625 7.62333 14.3523 7.66869 14.2443 7.65261C14.1354 7.63653 14.0442 7.56045 14.0077 7.45605C13.7603 6.75117 13.4017 6.15837 12.9421 5.69373C12.3781 5.12397 10.8308 3.89829 8.64394 4.83045C7.38106 5.36901 6.39178 6.92085 6.39178 8.36301C6.39178 8.52357 6.40138 8.68509 6.42034 8.84373C6.43786 8.99301 6.34282 9.13245 6.19834 9.16965C5.45026 9.36189 4.19578 9.95445 4.19578 11.7665C4.19578 11.8253 4.19722 11.8829 4.2001 11.9395C4.25602 13.1059 5.10826 14.1079 6.27322 14.3769L6.13978 14.9616C4.71634 14.6325 3.67378 13.4023 3.60514 11.9695C3.60154 11.9042 3.6001 11.8358 3.6001 11.7665C3.6001 9.69429 4.99138 8.93013 5.8057 8.66085C5.79946 8.56149 5.7961 8.46189 5.79634 8.36301C5.79634 6.67029 6.92074 4.91421 8.41186 4.27797C10.1593 3.53229 12.0109 3.90333 13.3638 5.27013C13.7845 5.69541 14.1294 6.21117 14.3924 6.80853C14.8931 6.38469 15.555 6.23109 16.1845 6.41637C17.048 6.67029 17.6262 7.47189 17.7548 8.57829C18.5996 8.77725 20.4001 9.47421 20.4001 11.7917ZM17.0696 18.3941L14.9891 19.56V16.9663L17.0696 15.7836V18.3941ZM11.7025 18.3866L9.62626 19.583V16.956L11.7025 15.7771V18.3866ZM9.3277 16.4371L7.25098 15.2717L9.3313 14.1062L11.3917 15.2647L9.3277 16.4371ZM6.93634 15.7819L9.03082 16.9572V19.5844L6.93634 18.3859V15.7819ZM12.009 9.61605L14.0735 10.7695L12.0003 11.9289L9.94354 10.7755L12.009 9.61605ZM12.6097 15.2654L14.6867 14.1014L16.7598 15.2709L14.6912 16.4467L12.6097 15.2654ZM12.2979 15.7766L14.3936 16.9663V19.56L12.2979 18.3842V15.7766ZM14.3893 13.5816L12.2979 14.7533V12.4485L14.3893 11.279V13.5816ZM9.62938 11.2857L11.7025 12.4481V14.7525L9.62938 13.5866V11.2857ZM17.5175 15.011C17.516 15.0101 17.5141 15.0098 17.5129 15.0089L17.5131 15.0084L14.985 13.5821V10.7695C14.985 10.6629 14.9293 10.565 14.8381 10.511C14.8357 10.5098 14.8335 10.5093 14.8314 10.5079L14.8319 10.5072L12.1532 9.01077C12.0627 8.96061 11.9531 8.96061 11.8638 9.01101L9.18682 10.5137L9.18706 10.5144C9.1849 10.5156 9.1825 10.5158 9.18058 10.517C9.08986 10.571 9.0337 10.6694 9.0337 10.7755V13.5861L6.49402 15.0091L6.4945 15.0098C6.4921 15.011 6.4897 15.0115 6.48778 15.0127C6.39706 15.0665 6.3409 15.1651 6.3409 15.2714V18.5606C6.3409 18.6686 6.39826 18.7682 6.49162 18.8212L9.17914 20.3594L9.18154 20.3611V20.3606C9.22738 20.3868 9.27802 20.4 9.32842 20.4C9.3793 20.4 9.43066 20.3868 9.4765 20.3604L12.0023 18.9048L14.5465 20.3323L14.547 20.3313C14.5919 20.3565 14.6413 20.37 14.6912 20.37C14.7409 20.37 14.7911 20.3575 14.8359 20.3323L17.5124 18.8325C17.6067 18.7795 17.6653 18.6792 17.6653 18.5705V15.2702C17.6653 15.1634 17.6094 15.065 17.5175 15.011Z" fill="white"/>
</g>
<defs>
<linearGradient id="paint0_linear_1355_61849" x1="0" y1="24" x2="24" y2="0" gradientUnits="userSpaceOnUse">
<stop stop-color="#2E27AD"/>
<stop offset="1" stop-color="#527FFF"/>
</linearGradient>
<clipPath id="clip0_1355_61849">
<rect width="24" height="24" fill="white"/>
</clipPath>
</defs>
</svg>
