<svg width="24" height="20" viewBox="0 0 24 20" fill="none" xmlns="http://www.w3.org/2000/svg">
	<path
		d="M15.2291 5.31866H15.9611L18.0473 3.23246L18.1497 2.34674C16.9546 1.29189 15.5103 0.559128 13.9533 0.217665C12.3963 -0.123799 10.7779 -0.0626886 9.251 0.395223C7.72414 0.853135 6.33922 1.69273 5.22706 2.8347C4.1149 3.97667 3.31223 5.38331 2.89485 6.92174C3.12726 6.82648 3.38472 6.81103 3.62685 6.87782L7.79926 6.18974C7.79926 6.18974 8.01154 5.83838 8.12134 5.86034C9.01535 4.87848 10.2509 4.27549 11.5749 4.17479C12.899 4.07409 14.2115 4.4833 15.2437 5.31866H15.2291Z"
		fill="#EA4335" />
	<path
		d="M21.0192 6.92176C20.5397 5.1559 19.5552 3.56842 18.1864 2.35407L15.2584 5.28208C15.8686 5.78069 16.3576 6.41136 16.6886 7.12653C17.0195 7.84169 17.1838 8.62267 17.1689 9.41056V9.93028C17.5111 9.93028 17.85 9.99768 18.1661 10.1286C18.4823 10.2596 18.7696 10.4516 19.0116 10.6935C19.2535 10.9355 19.4455 11.2228 19.5765 11.539C19.7074 11.8551 19.7748 12.194 19.7748 12.5362C19.7748 12.8784 19.7074 13.2173 19.5765 13.5334C19.4455 13.8496 19.2535 14.1369 19.0116 14.3789C18.7696 14.6209 18.4823 14.8128 18.1661 14.9438C17.85 15.0747 17.5111 15.1421 17.1689 15.1421H11.9571L11.4373 15.6692V18.7948L11.9571 19.3145H17.1689C18.6243 19.3259 20.0447 18.8684 21.2199 18.0099C22.3952 17.1514 23.2629 15.9374 23.6948 14.5475C24.1266 13.1576 24.0996 11.6657 23.6177 10.2923C23.1359 8.91895 22.2248 7.73716 21.0192 6.92176Z"
		fill="#4285F4" />
	<path
		d="M6.73788 19.2852H11.9497V15.1128H6.73788C6.36656 15.1128 5.99959 15.0329 5.66184 14.8786L4.92984 15.1055L2.829 17.1917L2.646 17.9237C3.8241 18.8133 5.26164 19.2916 6.73788 19.2852Z"
		fill="#34A853" />
	<path
		d="M6.73784 5.75061C5.32568 5.75905 3.95141 6.20833 2.80699 7.03571C1.66256 7.86309 0.805132 9.02726 0.35445 10.3656C-0.0962314 11.7039 -0.117656 13.1496 0.293168 14.5007C0.703992 15.8518 1.52655 17.0409 2.64595 17.9018L5.66912 14.8787C5.28493 14.7051 4.9486 14.4409 4.68897 14.1088C4.42934 13.7766 4.25416 13.3865 4.17847 12.9717C4.10278 12.557 4.12883 12.1301 4.25439 11.7277C4.37996 11.3253 4.60128 10.9593 4.89938 10.6612C5.19747 10.3631 5.56344 10.1418 5.96588 10.0162C6.36831 9.89065 6.79521 9.8646 7.20993 9.94029C7.62465 10.016 8.01481 10.1912 8.34695 10.4508C8.67908 10.7104 8.94327 11.0468 9.11684 11.4309L12.14 8.40777C11.5055 7.57824 10.6876 6.90673 9.75048 6.44577C8.81332 5.98481 7.78223 5.74689 6.73784 5.75061Z"
		fill="#FBBC05" />
</svg>