<svg width="24" height="24" viewBox="0 0 24 24" fill="none" xmlns="http://www.w3.org/2000/svg">
<path d="M22.6956 3.36513C21.2457 1.91452 18.9069 1.87407 17.4076 3.27367C17.3357 3.34155 17.2938 3.43532 17.2912 3.53419C17.2918 3.63265 17.3305 3.72706 17.3993 3.79749L17.8732 4.28804C18.001 4.41529 18.2029 4.42945 18.3472 4.3213C18.7231 4.03759 19.1816 3.88476 19.6525 3.88617C20.5362 3.88231 21.3347 4.41267 21.6737 5.22872C22.0128 6.04477 21.8253 6.9848 21.199 7.60828C18.1781 10.6292 14.1456 2.16508 4.99415 6.51909C4.6794 6.66621 4.4405 6.93823 4.33522 7.26933C4.22994 7.60043 4.26788 7.96046 4.43985 8.26235L6.00851 10.9756C6.34909 11.563 7.09768 11.769 7.69081 11.4385L7.72961 11.4163L7.69912 11.4385L8.39476 11.0477C9.17004 10.5663 9.90255 10.0192 10.5842 9.41252C10.7285 9.28873 10.9416 9.28873 11.0859 9.41252C11.1711 9.47934 11.2211 9.5814 11.2217 9.68967C11.2237 9.79489 11.1802 9.89588 11.1025 9.96682C10.3845 10.6041 9.612 11.1773 8.79386 11.6796H8.77169L8.07604 12.0676C7.78201 12.2342 7.44954 12.3212 7.11156 12.3198C6.4012 12.3199 5.74405 11.9433 5.38493 11.3304L3.90218 8.76676C1.05309 10.7789 -0.676314 14.6562 0.252134 19.5756C0.286161 19.745 0.434092 19.8675 0.606885 19.8693H2.29749C2.47932 19.8693 2.63263 19.7338 2.65501 19.5534C2.81088 18.3159 3.86327 17.3877 5.11055 17.3877C6.35784 17.3877 7.41022 18.3159 7.56609 19.5534C7.58976 19.7343 7.74397 19.8693 7.92638 19.8693H9.57265C9.75447 19.8693 9.90779 19.7338 9.93017 19.5534C10.091 18.3192 11.1425 17.3959 12.3871 17.3959C13.6317 17.3959 14.6831 18.3192 14.844 19.5534C14.8664 19.7338 15.0197 19.8693 15.2015 19.8693H16.8284C17.0252 19.8693 17.1857 19.7114 17.1887 19.5146C17.2275 17.2226 17.8455 14.5897 19.6082 13.2704C25.7138 8.70302 24.1091 4.78691 22.6956 3.36513ZM16.4681 10.2745L15.3041 9.68967C15.3028 9.34422 15.5433 9.04494 15.8809 8.97185C16.2186 8.89876 16.5613 9.07177 16.703 9.38681C16.8447 9.70186 16.7468 10.0731 16.4681 10.2772V10.2745Z" fill="#02303A"/>
</svg>
