<svg viewBox="0 0 22 24" fill="none" xmlns="http://www.w3.org/2000/svg">
<path fill-rule="evenodd" clip-rule="evenodd" d="M6.91369 17.8801C6.91369 17.8801 5.80194 18.4802 7.70572 18.6829C10.0128 18.9272 11.1911 18.8921 13.7327 18.4461C13.7327 18.4461 14.4018 18.8347 15.3358 19.1709C9.63678 21.436 2.43798 19.0399 6.91369 17.8801ZM6.21704 14.9243C6.21704 14.9243 4.96983 15.7806 6.87529 15.9633C9.33977 16.1994 11.2851 16.2187 14.6534 15.6175C14.6534 15.6175 15.1185 16.0554 15.8504 16.2946C8.9609 18.1637 1.28784 16.4418 6.21704 14.9243Z" fill="#3174B9"/>
<path fill-rule="evenodd" clip-rule="evenodd" d="M12.2888 10.6359C13.695 11.8806 11.9202 13 11.9202 13C11.9202 13 15.4891 11.5836 13.8499 9.8092C12.3195 8.15526 11.1456 7.33358 17.5 4.5C17.4998 4.49981 7.52527 6.41489 12.2888 10.6359Z" fill="#CA3132"/>
<path fill-rule="evenodd" clip-rule="evenodd" d="M19.6244 20.0666C19.6244 20.0666 20.4473 20.6959 18.7179 21.1826C15.4292 22.1066 5.02778 22.3852 2.13855 21.2194C1.1007 20.8001 3.04794 20.2189 3.66056 20.0961C4.29949 19.968 4.66412 19.9913 4.66412 19.9913C3.50915 19.237 -2.80127 21.4729 1.45928 22.1144C13.0771 23.8616 22.6375 21.3278 19.6244 20.0666ZM7.44855 11.8614C7.44855 11.8614 2.15835 13.0272 5.57544 13.451C7.01873 13.6299 9.89371 13.5887 12.5738 13.3802C14.7635 13.2098 16.9614 12.8451 16.9614 12.8451C16.9614 12.8451 16.1899 13.1522 15.6309 13.5056C10.2579 14.8166 -0.120194 14.206 2.8678 12.866C5.39409 11.7324 7.44855 11.8614 7.44855 11.8614ZM16.9394 16.7815C22.4008 14.1498 19.8757 11.6202 18.1127 11.9611C17.6817 12.0446 17.4883 12.1168 17.4883 12.1168C17.4883 12.1168 17.6491 11.8834 17.9548 11.783C21.4419 10.6463 24.1233 15.1364 16.8305 16.9146C16.8303 16.9146 16.9143 16.8442 16.9394 16.7815Z" fill="#3174B9"/>
<path fill-rule="evenodd" clip-rule="evenodd" d="M13.7247 0C13.7247 0 16.7468 2.27375 10.8576 5.76901C6.13461 8.57386 9.78077 10.1726 10.8561 12C8.09874 10.1298 6.0762 8.48314 7.43293 6.95098C9.42482 4.70191 14.9441 3.61121 13.7247 0Z" fill="#CA3132"/>
<path fill-rule="evenodd" clip-rule="evenodd" d="M7.98585 23.9152C13.2273 24.2261 21.2778 23.7426 21.4688 21.4417C21.4688 21.4417 21.1022 22.3138 17.1365 23.0057C12.6622 23.7869 7.14287 23.696 3.87042 23.1949C3.87042 23.1949 4.54099 23.7096 7.98585 23.9152Z" fill="#3174B9"/>
</svg>
