<svg viewBox="0 0 24 10" fill="none" xmlns="http://www.w3.org/2000/svg">
<g clip-path="url(#clip0_912_40456)">
<path d="M0 0H24V8H12V9.33333H6.66667V8H0V0ZM1.33333 6.66667H4V2.66667H5.33333V6.66667H6.66667V1.33333H1.33333V6.66667ZM8 1.33333V8H10.6667V6.66667H13.3333V1.33333H8ZM10.6667 2.66667H12V5.33333H10.6667V2.66667ZM14.6667 1.33333V6.66667H17.3333V2.66667H18.6667V6.66667H20V2.66667H21.3333V6.66667H22.6667V1.33333H14.6667Z" fill="#CB3837"/>
<path d="M1.33337 6.66658H4.00004V2.66659H5.33337V6.66658H6.66671V1.33325H1.33337V6.66658Z" fill="white"/>
<path d="M8 1.33325V7.99992H10.6667V6.66658H13.3333V1.33325H8ZM12 5.33325H10.6667V2.66659H12V5.33325Z" fill="white"/>
<path d="M14.6666 1.33325V6.66658H17.3333V2.66659H18.6666V6.66658H20V2.66659H21.3333V6.66658H22.6666V1.33325H14.6666Z" fill="white"/>
</g>
<defs>
<clipPath id="clip0_912_40456">
<rect width="24" height="9.33333" fill="white"/>
</clipPath>
</defs>
</svg>
