<svg width="131" height="95" viewBox="0 0 131 95" fill="none" xmlns="http://www.w3.org/2000/svg">
<ellipse cx="73.2049" cy="48.4402" rx="55.0918" ry="15.5" transform="rotate(-14.4453 73.2049 48.4402)" fill="url(#paint0_linear_481_20486)"/>
<ellipse cx="75.0773" cy="52.4921" rx="29.6867" ry="8.20399" transform="rotate(-14.4453 75.0773 52.4921)" fill="url(#paint1_linear_481_20486)"/>
<path fill-rule="evenodd" clip-rule="evenodd" d="M103.474 47.2267C103.868 46.4687 103.996 45.7492 103.825 45.0865C102.695 40.6988 88.908 40.4574 73.0308 44.5474C57.1536 48.6374 45.1989 55.5099 46.3291 59.8976C46.5201 60.6391 47.0728 61.2624 47.9359 61.7661C49.9264 56.4801 60.3619 50.2587 73.8066 46.7954C87.0316 43.3886 98.9967 43.7251 103.474 47.2267Z" fill="url(#paint2_linear_481_20486)"/>
<ellipse cx="75.5269" cy="54.2917" rx="22.5838" ry="4.32959" transform="rotate(-14.4453 75.5269 54.2917)" fill="#E5ECA7"/>
<ellipse cx="76.383" cy="54.3322" rx="15.6482" ry="3.34133" transform="rotate(-14.4453 76.383 54.3322)" fill="#F9FBEB"/>
<path fill-rule="evenodd" clip-rule="evenodd" d="M62.8927 25.9429C63.2001 26.7112 62.8271 27.5831 62.0596 27.8917C62.0588 27.892 62.058 27.8923 62.0571 27.8927L61.5 26.5C62.0571 27.8927 62.0569 27.8928 62.0571 27.8927C62.058 27.8923 62.0588 27.892 62.0596 27.8917L62.0471 27.8968C62.0347 27.902 62.0134 27.9109 61.9841 27.9236C61.9253 27.949 61.8343 27.9894 61.7169 28.0447C61.4814 28.1555 61.1422 28.3249 60.7442 28.5523C59.9403 29.0118 58.9359 29.6855 58.0607 30.5606C56.9841 31.6373 56.2066 33.1138 55.7706 34.1043C55.4368 34.8625 54.5516 35.2066 53.7934 34.8729C53.0352 34.5391 52.6911 33.6539 53.0248 32.8957C53.5149 31.7822 54.4724 29.9063 55.9394 28.4393C57.0642 27.3145 58.3098 26.4882 59.2558 25.9476C59.7328 25.675 60.1436 25.4695 60.4395 25.3302C60.5876 25.2605 60.7076 25.2072 60.7933 25.1701C60.8362 25.1515 60.8707 25.137 60.8958 25.1265L60.9266 25.1139L60.9366 25.1098L60.9402 25.1083L60.9417 25.1078C60.942 25.1076 60.9429 25.1073 61.5 26.5L60.9429 25.1073C61.7121 24.7996 62.5851 25.1737 62.8927 25.9429Z" fill="url(#paint3_linear_481_20486)"/>
<path fill-rule="evenodd" clip-rule="evenodd" d="M72.5 14C75.9915 14 79.3652 14.5044 82.5526 15.4439C73.8678 5.95251 61.3792 0 47.5 0C21.2665 0 0 21.2665 0 47.5C0 59.6709 4.57751 70.7726 12.1049 79.1776L14.4709 78.2861C15.2462 77.994 16.1115 78.3856 16.4036 79.1608C16.6957 79.936 16.3041 80.8013 15.5288 81.0934L14.3633 81.5325C22.9211 89.8665 34.6111 95 47.5 95C68.7296 95 86.7062 81.0728 92.7917 61.8566C88.0787 63.4896 83.0566 65.0064 77.8198 66.3554C73.9755 67.3457 70.1887 68.201 66.5021 68.921L36.0288 80.4036C35.2537 80.6957 34.3884 80.3041 34.0963 79.5288C33.8042 78.7536 34.1958 77.8884 34.9709 77.5963L52.218 71.0974C47.9327 71.5521 43.907 71.7836 40.2307 71.7913L20.0288 79.4036C19.2537 79.6957 18.3884 79.3041 18.0963 78.5288C17.8042 77.7536 18.1958 76.8884 18.9709 76.5963L32.6576 71.439C30.1594 71.1787 27.8815 70.7696 25.8859 70.1966L20.0288 72.4036C19.2537 72.6957 18.3884 72.3041 18.0963 71.5288C17.8042 70.7536 18.1958 69.8884 18.9709 69.5963L21.7556 68.5469C19.4762 67.294 17.6107 65.498 16.9496 62.9316C16.7909 62.3157 16.7139 61.6907 16.7124 61.0641C16.7076 58.993 17.5217 57.0485 18.6808 55.3275C19.8468 53.5962 21.4799 51.9125 23.4233 50.295C27.0364 47.2882 32.0116 44.2732 37.9232 41.4247C41.5803 25.7091 55.6698 14 72.5 14ZM23.9709 81.7933C23.1958 82.0854 22.8042 82.9506 23.0963 83.7258C23.3884 84.5011 24.2537 84.8927 25.0288 84.6006L29.0288 83.0934C29.8041 82.8013 30.1957 81.936 29.9036 81.1608C29.6115 80.3856 28.7462 79.994 27.9709 80.2861L23.9709 81.7933Z" fill="url(#paint4_linear_481_20486)"/>
<path fill-rule="evenodd" clip-rule="evenodd" d="M124.697 31.9553C113.387 30.0791 93.6128 31.9499 71.854 37.555C47.1065 43.93 26.9402 53.2941 19.7124 61.0572C19.6933 52.7651 41.1769 40.6846 69.3383 33.4302C95.1257 26.7874 117.966 26.3929 124.697 31.9553Z" fill="url(#paint5_linear_481_20486)"/>
<path d="M43.9708 41.9661C47.3005 29.3233 58.8115 20 72.5 20C80.7611 20 88.2291 23.3957 93.5844 28.8675C94.8484 28.7249 96.0891 28.6021 97.3041 28.4987C91.3426 21.4648 82.4427 17 72.5 17C56.6013 17 43.3689 28.4161 40.5531 43.4981C41.658 42.9828 42.798 42.4717 43.9708 41.9661Z" fill="url(#paint6_linear_481_20486)"/>
<defs>
<linearGradient id="paint0_linear_481_20486" x1="59.7642" y1="49.6866" x2="128.293" y2="48.2355" gradientUnits="userSpaceOnUse">
<stop stop-color="#4F672F"/>
<stop offset="1" stop-color="#92B73C"/>
</linearGradient>
<linearGradient id="paint1_linear_481_20486" x1="74.5016" y1="54.4172" x2="75.0773" y2="60.6961" gradientUnits="userSpaceOnUse">
<stop stop-color="#4F672F"/>
<stop offset="1" stop-color="#8EB33C"/>
</linearGradient>
<linearGradient id="paint2_linear_481_20486" x1="48.8839" y1="58.0668" x2="101.804" y2="44.5448" gradientUnits="userSpaceOnUse">
<stop stop-color="#95BB3D"/>
<stop offset="1" stop-color="#96BC3E"/>
</linearGradient>
<linearGradient id="paint3_linear_481_20486" x1="55" y1="32" x2="63" y2="25" gradientUnits="userSpaceOnUse">
<stop stop-color="#6C8A35"/>
<stop offset="1" stop-color="#91B63C"/>
</linearGradient>
<linearGradient id="paint4_linear_481_20486" x1="1.25868e-06" y1="48" x2="95" y2="48" gradientUnits="userSpaceOnUse">
<stop stop-color="#576281"/>
<stop offset="1" stop-color="#363954"/>
</linearGradient>
<linearGradient id="paint5_linear_481_20486" x1="24.5" y1="55" x2="119.5" y2="28" gradientUnits="userSpaceOnUse">
<stop stop-color="#95BB3D"/>
<stop offset="1" stop-color="#96BC3E"/>
</linearGradient>
<linearGradient id="paint6_linear_481_20486" x1="68.9286" y1="17" x2="74.5" y2="34.5" gradientUnits="userSpaceOnUse">
<stop stop-color="#678434"/>
<stop offset="1" stop-color="#90B53C"/>
</linearGradient>
</defs>
</svg>
