<svg viewBox="0 0 24 24" fill="none" xmlns="http://www.w3.org/2000/svg">
<g clip-path="url(#clip0_912_40344)">
<path d="M11.9137 0C5.82075 0 6.201 2.64225 6.201 2.64225L6.2085 5.37975H12.0225V6.201H3.89775C3.89775 6.201 0 5.7585 0 11.907C0 18.054 3.40275 17.8365 3.40275 17.8365H5.43375V14.9835C5.43375 14.9835 5.32425 11.5808 8.7825 11.5808H14.5485C14.5485 11.5808 17.7885 11.6333 17.7885 8.4495V3.18525C17.7885 3.18525 18.2805 0 11.9137 0ZM8.7075 1.8405C9.28575 1.8405 9.75375 2.3085 9.75375 2.88675C9.75375 3.465 9.28575 3.933 8.7075 3.933C8.57005 3.9332 8.43391 3.90627 8.30688 3.85376C8.17986 3.80125 8.06444 3.72419 7.96725 3.627C7.87006 3.52981 7.793 3.41439 7.74049 3.28737C7.68798 3.16034 7.66105 3.0242 7.66125 2.88675C7.66125 2.3085 8.12925 1.8405 8.7075 1.8405Z" fill="url(#paint0_linear_912_40344)"/>
<path d="M11.8836 23.8367C17.9766 23.8367 17.5963 21.1945 17.5963 21.1945L17.5888 18.457H11.7748V17.6357H19.8988C19.8988 17.6357 23.7973 18.0782 23.7973 11.9305C23.7973 5.78271 20.3946 6.00096 20.3946 6.00096H18.3636V8.85321C18.3636 8.85321 18.4731 12.256 15.0148 12.256H9.24882C9.24882 12.256 6.00882 12.2035 6.00882 15.3872V20.6515C6.00882 20.6515 5.51682 23.8367 11.8836 23.8367ZM15.0898 21.9962C14.9524 21.9964 14.8162 21.9695 14.6892 21.917C14.5622 21.8645 14.4468 21.7874 14.3496 21.6902C14.2524 21.593 14.1753 21.4776 14.1228 21.3506C14.0703 21.2235 14.0434 21.0874 14.0436 20.95C14.0436 20.3725 14.5116 19.9045 15.0898 19.9045C15.6681 19.9045 16.1361 20.3717 16.1361 20.95C16.1361 21.529 15.6681 21.9962 15.0898 21.9962Z" fill="url(#paint1_linear_912_40344)"/>
</g>
<defs>
<linearGradient id="paint0_linear_912_40344" x1="2.30625" y1="2.0865" x2="14.1735" y2="13.9935" gradientUnits="userSpaceOnUse">
<stop stop-color="#387EB8"/>
<stop offset="1" stop-color="#366994"/>
</linearGradient>
<linearGradient id="paint1_linear_912_40344" x1="9.40407" y1="9.62346" x2="22.1496" y2="21.8342" gradientUnits="userSpaceOnUse">
<stop stop-color="#FFE052"/>
<stop offset="1" stop-color="#FFC331"/>
</linearGradient>
<clipPath id="clip0_912_40344">
<rect width="24" height="24" fill="white"/>
</clipPath>
</defs>
</svg>
