<svg viewBox="0 0 20 19" fill="none" xmlns="http://www.w3.org/2000/svg">
<g clip-path="url(#clip0_1218_23533)">
<path d="M11.8505 9.59977C11.8505 10.5873 11.05 11.3878 10.0625 11.3878C9.07499 11.3878 8.27445 10.5873 8.27445 9.59977C8.27445 8.61227 9.07499 7.81174 10.0625 7.81174C11.05 7.81174 11.8505 8.61227 11.8505 9.59977Z" fill="#61DAFB"/>
<path fill-rule="evenodd" clip-rule="evenodd" d="M10.0625 2.91374C9.76287 2.62127 9.46435 2.3541 9.16954 2.1145C8.42593 1.51014 7.6887 1.067 7.00206 0.844868C6.31547 0.622753 5.63457 0.609239 5.0625 0.939523C4.49044 1.26981 4.16169 1.86624 4.01076 2.5719C3.85981 3.27761 3.87496 4.13764 4.02655 5.0838C4.08665 5.45893 4.16876 5.85105 4.27223 6.25678C3.86913 6.37003 3.48849 6.49498 3.13357 6.63049C2.23838 6.9723 1.486 7.38919 0.950303 7.87277C0.414655 8.35631 0.0625 8.93923 0.0625 9.5998C0.0625 10.2604 0.414655 10.8433 0.950303 11.3268C1.486 11.8104 2.23838 12.2273 3.13357 12.5691C3.48848 12.7046 3.86911 12.8296 4.27221 12.9428C4.16874 13.3485 4.08663 13.7406 4.02653 14.1158C3.87494 15.0619 3.85979 15.922 4.01074 16.6277C4.16167 17.3333 4.49042 17.9298 5.06249 18.26C5.63456 18.5903 6.31546 18.5768 7.00204 18.3547C7.68868 18.1326 8.42591 17.6894 9.16952 17.0851C9.46434 16.8455 9.76287 16.5783 10.0625 16.2858C10.3621 16.5783 10.6607 16.8455 10.9555 17.0851C11.6991 17.6894 12.4363 18.1326 13.123 18.3547C13.8095 18.5768 14.4904 18.5903 15.0625 18.26C15.6346 17.9297 15.9633 17.3333 16.1143 16.6277C16.2652 15.9219 16.2501 15.0619 16.0985 14.1158C16.0384 13.7406 15.9563 13.3485 15.8528 12.9428C16.2559 12.8296 16.6365 12.7046 16.9914 12.5691C17.8866 12.2273 18.639 11.8104 19.1747 11.3268C19.7103 10.8433 20.0625 10.2604 20.0625 9.5998C20.0625 8.93923 19.7103 8.35631 19.1747 7.87277C18.639 7.38919 17.8866 6.9723 16.9914 6.63049C16.6365 6.49498 16.2559 6.37003 15.8528 6.25678C15.9562 5.85105 16.0384 5.45894 16.0984 5.08382C16.25 4.13766 16.2652 3.27763 16.1142 2.57191C15.9633 1.86626 15.6346 1.26982 15.0625 0.939539C14.4904 0.609255 13.8095 0.622769 13.1229 0.844884C12.4363 1.06702 11.6991 1.51015 10.9555 2.11451C10.6607 2.35412 10.3621 2.62128 10.0625 2.91374ZM6.75234 1.61678C6.19431 1.43625 5.77215 1.46661 5.46815 1.64213C5.16416 1.81764 4.92678 2.16806 4.80411 2.74159C4.68145 3.31506 4.68521 4.06654 4.82763 4.95546C4.88377 5.30588 4.9609 5.67426 5.0586 6.05725C5.89427 5.86662 6.807 5.72281 7.77288 5.63408C8.33267 4.84196 8.91359 4.1234 9.49652 3.49499C9.2137 3.21889 8.93325 2.96791 8.65785 2.74408C7.95923 2.17628 7.31031 1.79728 6.75234 1.61678ZM10.0625 4.07787C9.65047 4.52431 9.23718 5.0205 8.83074 5.56029C9.23459 5.54085 9.64571 5.53085 10.0625 5.53085C10.4793 5.53085 10.8904 5.54085 11.2943 5.56029C10.8878 5.0205 10.4745 4.52431 10.0625 4.07787ZM7.18004 6.51333C6.50937 6.59542 5.87303 6.70524 5.2804 6.83885C5.46101 7.41888 5.68407 8.02487 5.94831 8.64674C6.13339 8.28728 6.33029 7.92626 6.53868 7.56532C6.74707 7.20437 6.96128 6.85335 7.18004 6.51333ZM6.38001 9.59977C6.63837 9.06251 6.92572 8.51754 7.24128 7.97097C7.55685 7.42439 7.88513 6.90305 8.22124 6.41067C8.81572 6.36579 9.43136 6.34215 10.0625 6.34215C10.6936 6.34215 11.3093 6.36579 11.9038 6.41067C12.2399 6.90305 12.5682 7.42438 12.8837 7.97095C13.1993 8.51753 13.4866 9.0625 13.745 9.59977C13.4866 10.137 13.1993 10.682 12.8837 11.2286C12.5681 11.7752 12.2398 12.2965 11.9037 12.7889C11.3093 12.8338 10.6936 12.8575 10.0625 12.8575C9.43137 12.8575 8.81574 12.8338 8.22128 12.7889C7.88516 12.2965 7.55687 11.7752 7.2413 11.2286C6.92573 10.682 6.63838 10.137 6.38001 9.59977ZM5.48328 9.59977C5.07719 8.71894 4.74537 7.85658 4.49262 7.03756C4.11209 7.14445 3.75451 7.26183 3.42296 7.38842C2.58192 7.70955 1.92925 8.08203 1.49394 8.47499C1.05858 8.86799 0.873797 9.24878 0.873797 9.5998C0.873797 9.95083 1.05858 10.3316 1.49394 10.7246C1.92925 11.1176 2.58192 11.4901 3.42296 11.8112C3.7545 11.9378 4.11208 12.0552 4.4926 12.162C4.74535 11.343 5.07718 10.4806 5.48328 9.59977ZM5.28038 12.3607C5.46099 11.7807 5.68406 11.1747 5.94831 10.5528C6.1334 10.9123 6.3303 11.2733 6.53869 11.6342C6.74709 11.9952 6.96131 12.3462 7.18007 12.6863C6.50938 12.6042 5.87302 12.4944 5.28038 12.3607ZM5.05858 13.1423C4.96089 13.5253 4.88375 13.8937 4.82761 14.2441C4.68519 15.133 4.68143 15.8845 4.80409 16.458C4.92677 17.0315 5.16414 17.3819 5.46814 17.5574C5.77214 17.733 6.1943 17.7633 6.75232 17.5828C7.31029 17.4023 7.95921 17.0233 8.65783 16.4555C8.93324 16.2317 9.21369 15.9807 9.49652 15.7046C8.9136 15.0762 8.33269 14.3576 7.77292 13.5655C6.80702 13.4768 5.89426 13.333 5.05858 13.1423ZM10.6285 15.7046C10.9113 15.9807 11.1918 16.2316 11.4672 16.4555C12.1658 17.0233 12.8147 17.4023 13.3727 17.5828C13.9307 17.7633 14.3529 17.7329 14.6569 17.5574C14.9609 17.3819 15.1982 17.0315 15.3209 16.458C15.4436 15.8845 15.4398 15.133 15.2974 14.2441C15.2412 13.8937 15.1641 13.5253 15.0664 13.1423C14.2307 13.333 13.318 13.4768 12.3521 13.5655C11.7923 14.3576 11.2114 15.0762 10.6285 15.7046ZM11.2942 13.6393C10.8878 14.1791 10.4745 14.6753 10.0625 15.1217C9.65048 14.6753 9.23721 14.1791 8.83078 13.6393C9.23462 13.6588 9.64572 13.6687 10.0625 13.6687C10.4793 13.6687 10.8904 13.6588 11.2942 13.6393ZM12.9449 12.6863C13.6156 12.6042 14.252 12.4944 14.8446 12.3607C14.664 11.7807 14.4409 11.1747 14.1767 10.5528C13.9916 10.9123 13.7947 11.2733 13.5863 11.6343C13.3779 11.9952 13.1637 12.3463 12.9449 12.6863ZM14.6417 9.59977C15.0478 10.4806 15.3797 11.343 15.6324 12.162C16.0129 12.0552 16.3705 11.9378 16.702 11.8112C17.5431 11.4901 18.1958 11.1176 18.6311 10.7246C19.0664 10.3316 19.2512 9.95083 19.2512 9.5998C19.2512 9.24878 19.0664 8.86799 18.6311 8.47499C18.1958 8.08203 17.5431 7.70955 16.702 7.38842C16.3705 7.26183 16.0129 7.14444 15.6324 7.03756C15.3796 7.85658 15.0478 8.71894 14.6417 9.59977ZM15.0664 6.05725C14.2307 5.86662 13.318 5.72281 12.3521 5.63409C11.7923 4.84196 11.2114 4.1234 10.6285 3.49499C10.9113 3.2189 11.1918 2.96792 11.4671 2.7441C12.1658 2.1763 12.8147 1.7973 13.3727 1.61679C13.9307 1.43627 14.3528 1.46663 14.6568 1.64214C14.9608 1.81765 15.1982 2.16808 15.3209 2.74161C15.4435 3.31507 15.4398 4.06655 15.2974 4.95548C15.2412 5.3059 15.1641 5.67426 15.0664 6.05725ZM14.8446 6.83885C14.664 7.41888 14.4409 8.02487 14.1767 8.64673C13.9916 8.28727 13.7947 7.92625 13.5863 7.5653C13.3779 7.20436 13.1637 6.85334 12.945 6.51333C13.6156 6.59542 14.252 6.70524 14.8446 6.83885Z" fill="#61DAFB"/>
</g>
<defs>
<clipPath id="clip0_1218_23533">
<rect width="20" height="18.3333" fill="white" transform="translate(0 0.666664)"/>
</clipPath>
</defs>
</svg>
