<svg viewBox="0 0 20 19" fill="none" xmlns="http://www.w3.org/2000/svg">
<path fill-rule="evenodd" clip-rule="evenodd" d="M16.0568 2.3359C15.5207 1.40404 14.527 0.830283 13.4519 0.831928L6.56505 0.842462C5.49489 0.844099 4.50664 1.41568 3.97156 2.34246L0.509834 8.33834C-0.0252453 9.26513 -0.0261175 10.4068 0.507543 11.3344L3.94184 17.3038C4.47795 18.2357 5.47172 18.8094 6.5468 18.8078L13.4336 18.7973C14.5038 18.7956 15.492 18.224 16.0271 17.2973L19.4889 11.3014C20.0239 10.3746 20.0248 9.23295 19.4911 8.30535L16.0568 2.3359ZM9.99999 4.16665C10.4602 4.16665 10.8333 4.53974 10.8333 4.99998L10.8333 10.8333C10.8333 11.2935 10.4602 11.6666 9.99999 11.6666C9.53975 11.6666 9.16666 11.2936 9.16666 10.8333V4.99998C9.16666 4.53974 9.53975 4.16665 9.99999 4.16665ZM7.2876 5.71742C7.59454 6.06036 7.56536 6.58719 7.22242 6.89413C6.36866 7.65826 5.83332 8.76608 5.83332 10C5.83332 12.3012 7.6988 14.1667 9.99999 14.1667C12.3012 14.1667 14.1667 12.3012 14.1667 10C14.1667 8.76608 13.6313 7.65826 12.7776 6.89413C12.4346 6.58719 12.4054 6.06036 12.7124 5.71742C13.0193 5.37448 13.5461 5.3453 13.8891 5.65224C15.0812 6.71917 15.8333 8.27231 15.8333 10C15.8333 13.2217 13.2217 15.8334 9.99999 15.8334C6.77833 15.8334 4.16666 13.2217 4.16666 10C4.16666 8.27231 4.91883 6.71917 6.1109 5.65224C6.45384 5.3453 6.98066 5.37448 7.2876 5.71742Z" fill="#68BD45"/>
</svg>
