<svg width="24" height="24" viewBox="0 0 24 24" fill="none" xmlns="http://www.w3.org/2000/svg">
<g clip-path="url(#clip0_3878_12387)">
<g clip-path="url(#clip1_3878_12387)">
<path d="M0 0H24V24H0V0Z" fill="url(#paint0_radial_3878_12387)"/>
<path d="M1.66406 12C1.66406 17.7094 6.29062 22.3359 12 22.3359C17.7094 22.3359 22.3359 17.7094 22.3359 12C22.3359 6.29062 17.7094 1.66406 12 1.66406C6.29062 1.66406 1.66406 6.29062 1.66406 12ZM2.71875 11.9883C2.72578 6.8625 6.88594 2.71172 12.0117 2.71875C17.1375 2.72578 21.2883 6.88594 21.2812 12.0117C21.2742 17.1375 17.1211 21.2812 12 21.2812C6.87891 21.2812 2.71641 17.1188 2.71875 11.9906V11.9883Z" fill="#FF7618"/>
<path d="M18.4453 12C18.4449 11.576 18.3254 11.1607 18.1004 10.8014C17.8753 10.4421 17.5539 10.1533 17.1726 9.96793C17.3565 9.52865 17.4056 9.0446 17.3135 8.57736C17.2215 8.11012 16.9926 7.68081 16.6558 7.34408C16.3191 7.00734 15.8898 6.7784 15.4226 6.68637C14.9553 6.59435 14.4713 6.6434 14.032 6.8273C13.8467 6.44606 13.5579 6.12465 13.1985 5.89978C12.8392 5.67491 12.4238 5.55566 12 5.55566C11.5761 5.55566 11.1607 5.67491 10.8014 5.89978C10.4421 6.12465 10.1532 6.44606 9.96793 6.8273C9.52865 6.6434 9.0446 6.59435 8.57736 6.68637C8.11012 6.7784 7.68081 7.00734 7.34408 7.34408C7.00734 7.68081 6.7784 8.11012 6.68637 8.57736C6.59435 9.0446 6.6434 9.52865 6.8273 9.96793C6.44606 10.1532 6.12465 10.4421 5.89978 10.8014C5.67491 11.1607 5.55566 11.5761 5.55566 12C5.55566 12.4238 5.67491 12.8392 5.89978 13.1985C6.12465 13.5579 6.44606 13.8467 6.8273 14.032C6.6434 14.4713 6.59435 14.9553 6.68637 15.4226C6.7784 15.8898 7.00734 16.3191 7.34408 16.6558C7.68081 16.9926 8.11012 17.2215 8.57736 17.3135C9.0446 17.4056 9.52865 17.3565 9.96793 17.1726C10.1532 17.5539 10.4421 17.8753 10.8014 18.1001C11.1607 18.325 11.5761 18.4443 12 18.4443C12.4238 18.4443 12.8392 18.325 13.1985 18.1001C13.5579 17.8753 13.8467 17.5539 14.032 17.1726C14.4713 17.3565 14.9553 17.4056 15.4226 17.3135C15.8898 17.2215 16.3191 16.9926 16.6558 16.6558C16.9926 16.3191 17.2215 15.8898 17.3135 15.4226C17.4056 14.9553 17.3565 14.4713 17.1726 14.032C17.5539 13.8466 17.8753 13.5578 18.1004 13.1985C18.3254 12.8392 18.4449 12.4239 18.4453 12ZM16.2257 7.77418C16.4821 8.03209 16.6541 8.3618 16.719 8.71963C16.7839 9.07747 16.7386 9.44658 16.589 9.77808C16.456 9.75367 16.3211 9.74112 16.1859 9.74058C15.6751 9.73996 15.1855 9.53679 14.8243 9.17562C14.4631 8.81445 14.26 8.32479 14.2593 7.81402C14.2588 7.6788 14.2462 7.5439 14.2218 7.4109C14.5533 7.26136 14.9224 7.21603 15.2803 7.2809C15.6381 7.34577 15.9678 7.51779 16.2257 7.77418ZM13.9148 16.4109C13.8379 16.3544 13.765 16.2925 13.6968 16.2257C13.2468 15.7758 12.6364 15.523 12 15.523C11.3635 15.523 10.7532 15.7758 10.3031 16.2257C10.2349 16.2925 10.162 16.3544 10.0851 16.4109C10.0756 16.3363 10.0709 16.2611 10.0711 16.1859C10.0704 15.5875 9.83244 15.0138 9.4093 14.5906C8.98616 14.1675 8.41243 13.9295 7.81402 13.9289C7.7388 13.929 7.66364 13.9243 7.58902 13.9148C7.64553 13.8379 7.7074 13.765 7.77418 13.6968C8.22415 13.2468 8.47694 12.6364 8.47694 12C8.47694 11.3635 8.22415 10.7532 7.77418 10.3031C7.7074 10.2349 7.64553 10.162 7.58902 10.0851C7.66364 10.0756 7.7388 10.0709 7.81402 10.0711C8.41243 10.0704 8.98616 9.83244 9.4093 9.4093C9.83244 8.98616 10.0704 8.41243 10.0711 7.81402C10.0709 7.7388 10.0756 7.66364 10.0851 7.58902C10.162 7.64553 10.2349 7.7074 10.3031 7.77418C10.7532 8.22415 11.3635 8.47694 12 8.47694C12.6364 8.47694 13.2468 8.22415 13.6968 7.77418C13.765 7.7074 13.8379 7.64553 13.9148 7.58902C13.9243 7.66364 13.929 7.7388 13.9289 7.81402C13.9295 8.41243 14.1675 8.98616 14.5906 9.4093C15.0138 9.83244 15.5875 10.0704 16.1859 10.0711C16.2611 10.0709 16.3363 10.0756 16.4109 10.0851C16.3544 10.162 16.2925 10.2349 16.2257 10.3031C15.7758 10.7532 15.523 11.3635 15.523 12C15.523 12.6364 15.7758 13.2468 16.2257 13.6968C16.2925 13.765 16.3544 13.8379 16.4109 13.9148C16.3363 13.9243 16.2611 13.929 16.1859 13.9289C15.5875 13.9295 15.0138 14.1675 14.5906 14.5906C14.1675 15.0138 13.9295 15.5875 13.9289 16.1859C13.929 16.2611 13.9243 16.3363 13.9148 16.4109ZM12 5.88511C12.3626 5.88514 12.7179 5.9874 13.0251 6.18017C13.3323 6.37294 13.5789 6.64841 13.7367 6.97496C13.5643 7.07758 13.4052 7.20118 13.2632 7.34293C12.928 7.67755 12.4736 7.86548 12 7.86548C11.5263 7.86548 11.0719 7.67755 10.7367 7.34293C10.5947 7.20118 10.4356 7.07758 10.2632 6.97496C10.421 6.64841 10.6676 6.37294 10.9748 6.18017C11.282 5.9874 11.6373 5.88514 12 5.88511ZM7.77418 7.77418C8.03209 7.51779 8.3618 7.34577 8.71963 7.2809C9.07747 7.21603 9.44658 7.26136 9.77808 7.4109C9.75367 7.5439 9.74112 7.6788 9.74058 7.81402C9.73996 8.32479 9.53679 8.81445 9.17562 9.17562C8.81445 9.53679 8.32479 9.73996 7.81402 9.74058C7.6788 9.74112 7.5439 9.75367 7.4109 9.77808C7.26136 9.44658 7.21603 9.07747 7.2809 8.71963C7.34577 8.3618 7.51779 8.03209 7.77418 7.77418ZM5.88511 12C5.88514 11.6373 5.9874 11.282 6.18017 10.9748C6.37294 10.6676 6.64841 10.421 6.97496 10.2632C7.07758 10.4356 7.20118 10.5947 7.34293 10.7367C7.67755 11.0719 7.86548 11.5263 7.86548 12C7.86548 12.4736 7.67755 12.928 7.34293 13.2632C7.20118 13.4052 7.07758 13.5643 6.97496 13.7367C6.64841 13.5789 6.37294 13.3323 6.18017 13.0251C5.9874 12.7179 5.88514 12.3626 5.88511 12ZM7.77418 16.2257C7.51779 15.9678 7.34577 15.6381 7.2809 15.2803C7.21603 14.9224 7.26136 14.5533 7.4109 14.2218C7.5439 14.2462 7.6788 14.2588 7.81402 14.2593C8.32479 14.26 8.81445 14.4631 9.17562 14.8243C9.53679 15.1855 9.73996 15.6751 9.74058 16.1859C9.74112 16.3211 9.75367 16.456 9.77808 16.589C9.44658 16.7386 9.07747 16.7839 8.71963 16.719C8.3618 16.6541 8.03209 16.4821 7.77418 16.2257ZM12 18.1148C11.6373 18.1148 11.282 18.0125 10.9748 17.8197C10.6676 17.627 10.421 17.3515 10.2632 17.025C10.4356 16.9223 10.5947 16.7987 10.7367 16.657C11.0719 16.3224 11.5263 16.1344 12 16.1344C12.4736 16.1344 12.928 16.3224 13.2632 16.657C13.4052 16.7987 13.5643 16.9223 13.7367 17.025C13.5789 17.3515 13.3323 17.627 13.0251 17.8197C12.7179 18.0125 12.3626 18.1148 12 18.1148ZM16.2257 16.2257C15.9678 16.4821 15.6381 16.6541 15.2803 16.719C14.9224 16.7839 14.5533 16.7386 14.2218 16.589C14.2462 16.456 14.2588 16.3211 14.2593 16.1859C14.26 15.6751 14.4631 15.1855 14.8243 14.8243C15.1855 14.4631 15.6751 14.26 16.1859 14.2593C16.3211 14.2588 16.456 14.2462 16.589 14.2218C16.7386 14.5533 16.7839 14.9224 16.719 15.2803C16.6541 15.6381 16.4821 15.9678 16.2257 16.2257ZM17.025 13.7367C16.9223 13.5643 16.7987 13.4052 16.657 13.2632C16.3224 12.928 16.1344 12.4736 16.1344 12C16.1344 11.5263 16.3224 11.0719 16.657 10.7367C16.7987 10.5947 16.9223 10.4356 17.025 10.2632C17.3515 10.421 17.6269 10.6677 17.8196 10.9749C18.0123 11.282 18.1145 11.6373 18.1145 12C18.1145 12.3626 18.0123 12.7179 17.8196 13.0251C17.6269 13.3322 17.3515 13.5789 17.025 13.7367Z" fill="#FFE0CB"/>
</g>
</g>
<defs>
<radialGradient id="paint0_radial_3878_12387" cx="0" cy="0" r="1" gradientUnits="userSpaceOnUse" gradientTransform="translate(8.25 8.25) scale(12)">
<stop stop-color="#3A2A1D"/>
<stop offset="1" stop-color="#241405"/>
</radialGradient>
<clipPath id="clip0_3878_12387">
<rect width="24" height="24" fill="white"/>
</clipPath>
<clipPath id="clip1_3878_12387">
<rect width="24" height="24" fill="white"/>
</clipPath>
</defs>
</svg>
