<svg viewBox="0 0 24 15" fill="none" xmlns="http://www.w3.org/2000/svg">
<g clip-path="url(#clip0_912_40338)">
<path d="M6.82105 5.24218C6.82105 5.53428 6.85263 5.77113 6.9079 5.94481C6.97105 6.11849 7.05 6.30797 7.16053 6.51323C7.2 6.57639 7.21579 6.63955 7.21579 6.69481C7.21579 6.77376 7.16842 6.8527 7.06579 6.93165L6.56842 7.26323C6.49737 7.3106 6.42632 7.33428 6.36316 7.33428C6.28421 7.33428 6.20526 7.29481 6.12632 7.22376C6.01579 7.10534 5.92105 6.97902 5.84211 6.8527C5.76316 6.71849 5.68421 6.56849 5.59737 6.38691C4.98158 7.11323 4.2079 7.47639 3.27632 7.47639C2.61316 7.47639 2.08421 7.28691 1.69737 6.90797C1.31053 6.52902 1.11316 6.02376 1.11316 5.39218C1.11316 4.72113 1.35 4.17639 1.83158 3.76586C2.31316 3.35534 2.95263 3.15007 3.76579 3.15007C4.03421 3.15007 4.31053 3.17376 4.60263 3.21323C4.89474 3.2527 5.19474 3.31586 5.51053 3.38691V2.8106C5.51053 2.2106 5.38421 1.79218 5.13948 1.54744C4.88684 1.3027 4.46053 1.18428 3.85263 1.18428C3.57632 1.18428 3.29211 1.21586 3 1.28691C2.7079 1.35797 2.42369 1.44481 2.14737 1.55534C2.02105 1.6106 1.92632 1.64218 1.87105 1.65797C1.81579 1.67376 1.77632 1.68165 1.74474 1.68165C1.63421 1.68165 1.57895 1.6027 1.57895 1.43691V1.05007C1.57895 0.923756 1.59474 0.829019 1.63421 0.773756C1.67369 0.718493 1.74474 0.66323 1.85526 0.607967C2.13158 0.465861 2.46316 0.34744 2.85 0.252704C3.23684 0.150072 3.64737 0.102704 4.08158 0.102704C5.02105 0.102704 5.7079 0.315861 6.15 0.742177C6.58421 1.16849 6.80526 1.81586 6.80526 2.68428V5.24218H6.82105ZM3.61579 6.44218C3.87632 6.44218 4.14474 6.39481 4.42895 6.30007C4.71316 6.20534 4.96579 6.03165 5.17895 5.79481C5.30526 5.64481 5.4 5.47902 5.44737 5.28955C5.49474 5.10007 5.52632 4.87112 5.52632 4.6027V4.27112C5.29737 4.21586 5.05263 4.16849 4.8 4.13691C4.54737 4.10534 4.30263 4.08955 4.0579 4.08955C3.52895 4.08955 3.14211 4.19218 2.88158 4.40534C2.62105 4.61849 2.49474 4.91849 2.49474 5.31323C2.49474 5.68428 2.58947 5.9606 2.78684 6.15007C2.97632 6.34744 3.25263 6.44218 3.61579 6.44218ZM9.95527 7.29481C9.81316 7.29481 9.71842 7.27113 9.65526 7.21586C9.59211 7.16849 9.53684 7.05797 9.48948 6.90797L7.63421 0.805335C7.58684 0.64744 7.56316 0.544809 7.56316 0.489546C7.56316 0.36323 7.62632 0.292177 7.75263 0.292177H8.52632C8.67632 0.292177 8.77895 0.315861 8.83421 0.371125C8.89737 0.418493 8.94474 0.529019 8.99211 0.679019L10.3184 5.90534L11.55 0.679019C11.5895 0.521125 11.6368 0.418493 11.7 0.371125C11.7632 0.323756 11.8737 0.292177 12.0158 0.292177H12.6474C12.7974 0.292177 12.9 0.315861 12.9632 0.371125C13.0263 0.418493 13.0816 0.529019 13.1132 0.679019L14.3605 5.96849L15.7263 0.679019C15.7737 0.521125 15.8289 0.418493 15.8842 0.371125C15.9474 0.323756 16.05 0.292177 16.1921 0.292177H16.9263C17.0526 0.292177 17.1237 0.355335 17.1237 0.489546C17.1237 0.529019 17.1158 0.568493 17.1079 0.615861C17.1 0.66323 17.0842 0.726388 17.0526 0.81323L15.15 6.91586C15.1026 7.07376 15.0474 7.17639 14.9842 7.22376C14.9211 7.27113 14.8184 7.3027 14.6842 7.3027H14.0053C13.8553 7.3027 13.7526 7.27902 13.6895 7.22376C13.6263 7.16849 13.5711 7.06586 13.5395 6.90797L12.3158 1.81586L11.1 6.90007C11.0605 7.05797 11.0132 7.1606 10.95 7.21586C10.8868 7.27113 10.7763 7.29481 10.6342 7.29481H9.95527ZM20.1 7.50797C19.6895 7.50797 19.2789 7.4606 18.8842 7.36586C18.4895 7.27113 18.1816 7.16849 17.9763 7.05007C17.85 6.97902 17.7632 6.90007 17.7316 6.82902C17.7 6.75797 17.6842 6.67902 17.6842 6.60797V6.20534C17.6842 6.03955 17.7474 5.9606 17.8658 5.9606C17.9132 5.9606 17.9605 5.96849 18.0079 5.98428C18.0553 6.00007 18.1263 6.03165 18.2053 6.06323C18.4737 6.18165 18.7658 6.27639 19.0737 6.33955C19.3895 6.4027 19.6974 6.43428 20.0132 6.43428C20.5105 6.43428 20.8974 6.34744 21.1658 6.17376C21.4342 6.00007 21.5763 5.74744 21.5763 5.42376C21.5763 5.2027 21.5053 5.02112 21.3632 4.87113C21.2211 4.72113 20.9526 4.58691 20.5658 4.4606L19.4211 4.10534C18.8447 3.92376 18.4184 3.65534 18.1579 3.30007C17.8974 2.9527 17.7632 2.56586 17.7632 2.15534C17.7632 1.82376 17.8342 1.53165 17.9763 1.27902C18.1184 1.02639 18.3079 0.805335 18.5447 0.631651C18.7816 0.450072 19.05 0.315861 19.3658 0.221125C19.6816 0.126388 20.0132 0.0869141 20.3605 0.0869141C20.5342 0.0869141 20.7158 0.0948088 20.8895 0.118493C21.0711 0.142177 21.2368 0.173756 21.4026 0.205335C21.5605 0.244809 21.7105 0.284282 21.8526 0.331651C21.9947 0.379019 22.1053 0.426388 22.1842 0.473756C22.2947 0.536914 22.3737 0.600072 22.4211 0.671125C22.4684 0.734283 22.4921 0.821125 22.4921 0.931651V1.3027C22.4921 1.46849 22.4289 1.55534 22.3105 1.55534C22.2474 1.55534 22.1447 1.52376 22.0105 1.4606C21.5605 1.25534 21.0553 1.1527 20.4947 1.1527C20.0447 1.1527 19.6895 1.22376 19.4447 1.37376C19.2 1.52376 19.0737 1.7527 19.0737 2.07639C19.0737 2.29744 19.1526 2.48691 19.3105 2.63691C19.4684 2.78691 19.7605 2.93691 20.1789 3.07113L21.3 3.42639C21.8684 3.60797 22.2789 3.8606 22.5237 4.18428C22.7684 4.50797 22.8868 4.87902 22.8868 5.28955C22.8868 5.62902 22.8158 5.93691 22.6816 6.20534C22.5395 6.47376 22.35 6.7106 22.1053 6.90007C21.8605 7.09744 21.5684 7.23955 21.2289 7.34218C20.8737 7.4527 20.5026 7.50797 20.1 7.50797Z" fill="#252F3E"/>
<path fill-rule="evenodd" clip-rule="evenodd" d="M21.5921 11.3447C18.9948 13.2631 15.2211 14.2816 11.9763 14.2816C7.42898 14.2816 3.33161 12.6 0.236873 9.80525C-0.00786375 9.58419 0.213189 9.28419 0.505294 9.45788C3.85266 11.4 7.98161 12.5763 12.2527 12.5763C15.1342 12.5763 18.3 11.9763 21.2132 10.7447C21.6474 10.5474 22.0185 11.0289 21.5921 11.3447Z" fill="#FF9900"/>
<path fill-rule="evenodd" clip-rule="evenodd" d="M22.6737 10.1132C22.3422 9.68689 20.479 9.90794 19.6343 10.0106C19.3816 10.0422 19.3422 9.8211 19.5711 9.65531C21.0553 8.61321 23.4948 8.91321 23.779 9.26058C24.0632 9.61584 23.7 12.0553 22.3106 13.2237C22.0974 13.4053 21.8922 13.3106 21.9869 13.0737C22.3027 12.2922 23.0053 10.5316 22.6737 10.1132Z" fill="#FF9900"/>
</g>
<defs>
<clipPath id="clip0_912_40338">
<rect width="24" height="14.3684" fill="white"/>
</clipPath>
</defs>
</svg>
