<svg viewBox="0 0 24 21" fill="none" xmlns="http://www.w3.org/2000/svg">
<g clip-path="url(#clip0_1355_61160)">
<path d="M1.96943 17.4014L5.33931 11.5638L6.21602 10.0447L12.0155 0L14.3054 3.96706C12.5647 6.98541 10.6137 10.3708 8.87155 13.3892L8.56661 13.9186C8.45225 13.944 8.33931 13.9708 8.22496 13.9991C7.02355 14.2984 5.86308 14.7473 4.77884 15.3445C3.75814 15.9078 2.81225 16.5981 1.96802 17.4014H1.96943Z" fill="#0EB5EA"/>
<path d="M15.4687 13.9256L14.4748 12.2033L12.3303 8.48326L14.6202 4.51196L18.8795 11.839L22.1675 17.5327C22.1237 17.4889 22.0786 17.4466 22.0334 17.4042C21.1877 16.5995 20.2404 15.9077 19.2197 15.3444C18.1355 14.7458 16.975 14.2969 15.7736 13.999C15.672 13.9736 15.5703 13.9496 15.4687 13.927V13.9256Z" fill="#0D7FC2"/>
<path d="M15.6424 14.527C16.8367 14.8235 17.9464 15.2639 18.9558 15.8216C19.9567 16.3736 20.8616 17.0414 21.6579 17.7995C22.4725 18.5745 23.1727 19.4442 23.7459 20.3816L23.9986 20.7952H19.0292L18.9487 20.719C18.6833 20.4635 18.4038 20.2263 18.1115 20.0061C17.8165 19.7844 17.5073 19.5811 17.1854 19.3948C16.8042 19.1745 16.4089 18.9839 16.0024 18.8188C15.5901 18.6522 15.168 18.5138 14.7374 18.4051C14.2969 18.2936 13.8494 18.2103 13.3976 18.1552C12.936 18.0988 12.4673 18.0719 11.9972 18.0719C11.5271 18.0719 11.0598 18.0988 10.5967 18.1552C10.1449 18.2103 9.69741 18.2936 9.25694 18.4051C8.82776 18.5152 8.40565 18.6522 7.99341 18.8188C7.58682 18.9839 7.19153 19.1759 6.81035 19.3948C6.48988 19.5797 6.18071 19.7844 5.88423 20.0061C5.592 20.2249 5.31106 20.4635 5.04706 20.719L4.968 20.7952H0L0.252706 20.3816C0.825882 19.4442 1.52612 18.5745 2.34071 17.7995C3.13694 17.0414 4.04188 16.3736 5.04282 15.8216C6.05224 15.2639 7.16188 14.8249 8.35623 14.527C9.49835 14.2432 10.7167 14.0894 11.9986 14.0894C13.2805 14.0894 14.4988 14.2432 15.6409 14.527H15.6424Z" fill="#005FAB"/>
</g>
<defs>
<clipPath id="clip0_1355_61160">
<rect width="24" height="20.8941" fill="white"/>
</clipPath>
</defs>
</svg>
