<svg viewBox="0 0 12 24" fill="none" xmlns="http://www.w3.org/2000/svg">
<g clip-path="url(#clip0_912_40391)">
<mask id="mask0_912_40391" style="mask-type:luminance" maskUnits="userSpaceOnUse" x="4" y="7" width="4" height="18">
<path d="M5.67943 7.80176C5.4902 7.80176 5.30283 7.83903 5.12802 7.91144C4.9532 7.98385 4.79435 8.08999 4.66055 8.22379C4.52675 8.35759 4.42062 8.51643 4.34821 8.69125C4.27579 8.86607 4.23852 9.05344 4.23853 9.24266V22.8024C4.23853 23.1846 4.39033 23.5511 4.66056 23.8213C4.93078 24.0915 5.29728 24.2433 5.67943 24.2433C6.06158 24.2433 6.42808 24.0915 6.6983 23.8213C6.96852 23.5511 7.12033 23.1846 7.12033 22.8024V9.24297C7.12039 9.05371 7.08316 8.8663 7.01077 8.69144C6.93838 8.51658 6.83225 8.35769 6.69845 8.22386C6.56464 8.09002 6.40577 7.98386 6.23093 7.91143C6.05608 7.83901 5.86868 7.80174 5.67943 7.80176Z" fill="white"/>
</mask>
<g mask="url(#mask0_912_40391)">
<path d="M8.1357 6.78662H3.22351V25.2583H8.1357V6.78662Z" fill="#F7D186"/>
</g>
<mask id="mask1_912_40391" style="mask-type:luminance" maskUnits="userSpaceOnUse" x="-1" y="0" width="13" height="19">
<path d="M0.00604033 5.48329C0.0020344 5.57173 -1.93543e-05 5.66089 -0.00012207 5.75076C-0.00012207 5.84906 0.00203467 5.94644 0.00727318 6.04351C0.00511615 6.09127 -0.00012207 6.13842 -0.00012207 6.1871V15.622C-0.00012207 17.4262 1.47622 18.9025 3.28042 18.9025H8.21757C10.0221 18.9025 11.4981 17.4262 11.4981 15.622V6.18679C11.4981 6.13194 11.4926 6.07863 11.4895 6.02471C11.4938 5.9338 11.4963 5.84228 11.4963 5.75076C11.4963 5.66079 11.4941 5.57204 11.4901 5.48329C11.3514 2.43232 8.83387 0.00195312 5.74869 0.00195312C2.6632 0.00195312 0.145323 2.43232 0.00604033 5.48329Z" fill="white"/>
</mask>
<g mask="url(#mask1_912_40391)">
<mask id="mask2_912_40391" style="mask-type:luminance" maskUnits="userSpaceOnUse" x="-4" y="1" width="19" height="19">
<path d="M14.9454 1.24658H-3.73181V19.9237H14.9454V1.24658Z" fill="white"/>
</mask>
<g mask="url(#mask2_912_40391)">
<mask id="mask3_912_40391" style="mask-type:luminance" maskUnits="userSpaceOnUse" x="-4" y="1" width="19" height="19">
<path d="M10.7064 1.42887L-3.552 15.6873L0.708215 19.9475L14.9666 5.68909L10.7064 1.42887Z" fill="white"/>
</mask>
<g mask="url(#mask3_912_40391)">
<mask id="mask4_912_40391" style="mask-type:luminance" maskUnits="userSpaceOnUse" x="-1" y="-1" width="13" height="20">
<path d="M11.6971 -0.174561H-0.0775146V18.9087H11.6971V-0.174561Z" fill="white"/>
</mask>
<g mask="url(#mask4_912_40391)">
<path d="M15.9585 0.424561H-4.55371V20.9367H15.9585V0.424561Z" fill="#FFCD3C"/>
</g>
</g>
</g>
</g>
<mask id="mask5_912_40391" style="mask-type:luminance" maskUnits="userSpaceOnUse" x="-1" y="0" width="13" height="19">
<path d="M0.00604033 5.48329C0.0020344 5.57173 -1.93543e-05 5.66089 -0.00012207 5.75076C-0.00012207 5.84906 0.00203467 5.94644 0.00727318 6.04351C0.00511615 6.09127 -0.00012207 6.13842 -0.00012207 6.1871V15.622C-0.00012207 17.4262 1.47622 18.9025 3.28042 18.9025H8.21757C10.0221 18.9025 11.4981 17.4262 11.4981 15.622V6.18679C11.4981 6.13194 11.4926 6.07863 11.4895 6.02471C11.4938 5.9338 11.4963 5.84228 11.4963 5.75076C11.4963 5.66079 11.4941 5.57204 11.4901 5.48329C11.3514 2.43232 8.83387 0.00195312 5.74869 0.00195312C2.6632 0.00195312 0.145323 2.43232 0.00604033 5.48329Z" fill="white"/>
</mask>
<g mask="url(#mask5_912_40391)">
<mask id="mask6_912_40391" style="mask-type:luminance" maskUnits="userSpaceOnUse" x="-9" y="-4" width="20" height="20">
<path d="M10.8852 -3.82886H-8.80701V15.8634H10.8852V-3.82886Z" fill="white"/>
</mask>
<g mask="url(#mask6_912_40391)">
<mask id="mask7_912_40391" style="mask-type:luminance" maskUnits="userSpaceOnUse" x="-9" y="-4" width="20" height="20">
<path d="M5.45148 -3.82867L-8.80713 10.4299L-3.55202 15.685L10.7066 1.42644L5.45148 -3.82867Z" fill="white"/>
</mask>
<g mask="url(#mask7_912_40391)">
<mask id="mask8_912_40391" style="mask-type:luminance" maskUnits="userSpaceOnUse" x="-1" y="-1" width="13" height="20">
<path d="M11.6973 -0.174561H-0.0773926V18.9087H11.6973V-0.174561Z" fill="white"/>
</mask>
<g mask="url(#mask8_912_40391)">
<path d="M11.7216 -4.84399H-9.82227V16.6999H11.7216V-4.84399Z" fill="#F3807B"/>
</g>
</g>
</g>
</g>
<mask id="mask9_912_40391" style="mask-type:luminance" maskUnits="userSpaceOnUse" x="-1" y="0" width="13" height="19">
<path d="M0.00604033 5.48329C0.0020344 5.57173 -1.93543e-05 5.66089 -0.00012207 5.75076C-0.00012207 5.84906 0.00203467 5.94644 0.00727318 6.04351C0.00511615 6.09127 -0.00012207 6.13842 -0.00012207 6.1871V15.622C-0.00012207 17.4262 1.47622 18.9025 3.28042 18.9025H8.21757C10.0221 18.9025 11.4981 17.4262 11.4981 15.622V6.18679C11.4981 6.13194 11.4926 6.07863 11.4895 6.02471C11.4938 5.9338 11.4963 5.84228 11.4963 5.75076C11.4963 5.66079 11.4941 5.57204 11.4901 5.48329C11.3514 2.43232 8.83387 0.00195312 5.74869 0.00195312C2.6632 0.00195312 0.145323 2.43232 0.00604033 5.48329Z" fill="white"/>
</mask>
<g mask="url(#mask9_912_40391)">
<mask id="mask10_912_40391" style="mask-type:luminance" maskUnits="userSpaceOnUse" x="0" y="5" width="20" height="20">
<path d="M19.2087 5.50977H0.531494V24.1869H19.2087V5.50977Z" fill="white"/>
</mask>
<g mask="url(#mask10_912_40391)">
<mask id="mask11_912_40391" style="mask-type:luminance" maskUnits="userSpaceOnUse" x="0" y="5" width="20" height="20">
<path d="M14.9571 5.67661L0.698486 19.9355L4.9217 24.1587L19.1803 9.89973L14.9571 5.67661Z" fill="white"/>
</mask>
<g mask="url(#mask11_912_40391)">
<mask id="mask12_912_40391" style="mask-type:luminance" maskUnits="userSpaceOnUse" x="-1" y="-1" width="13" height="20">
<path d="M11.6973 -0.174561H-0.0773926V18.9087H11.6973V-0.174561Z" fill="white"/>
</mask>
<g mask="url(#mask12_912_40391)">
<path d="M20.1954 4.66162H-0.316772V25.1738H20.1954V4.66162Z" fill="#35D0BA"/>
</g>
</g>
</g>
</g>
<mask id="mask13_912_40391" style="mask-type:luminance" maskUnits="userSpaceOnUse" x="4" y="18" width="4" height="4">
<path d="M4.60791 18.9023L7.12055 21.4566V18.9023H4.60791Z" fill="white"/>
</mask>
<g mask="url(#mask13_912_40391)">
<path d="M8.14423 17.8823H3.61353V22.4327H8.14423V17.8823Z" fill="#D8AE64"/>
</g>
</g>
<defs>
<clipPath id="clip0_912_40391">
<rect width="11.7333" height="24" fill="white"/>
</clipPath>
</defs>
</svg>
