<svg width="24" height="24" viewBox="0 0 24 24" fill="none" xmlns="http://www.w3.org/2000/svg">
<g clip-path="url(#clip0_3878_12372)">
<path fill-rule="evenodd" clip-rule="evenodd" d="M20.1524 1.0474L20.3271 1.74584L20.5014 2.35642L20.7635 3.75279L20.8508 4.36337L21.0251 5.0618L21.374 7.85455V8.55299L21.4614 9.25093V9.94887L21.5488 10.6473V13.4401L21.4614 14.138V14.8364L21.374 15.5344V16.145L21.0251 18.9382L20.8508 19.6361L20.7635 20.3346L20.6761 20.9452L20.3271 22.3415L20.1524 22.9521L19.5413 23.1273L18.145 23.4763L17.447 23.5637L16.7486 23.7379L16.138 23.8253L15.3527 23.9126L14.7416 24V21.2068L15.5269 21.1204L15.9633 21.0325L16.3122 20.9452L17.8833 20.5962L18.145 19.5488L18.4939 17.4545L18.6687 16.3197L18.7565 15.2728L18.8434 14.138V9.862L18.7565 9.33781V8.72723L18.6687 8.20353V7.68032L18.0581 4.0144L17.8833 3.49119L17.098 3.22909L16.6617 3.14172L15.9633 2.96748L15.0906 2.79275H14.7416V0L15.3527 0.0873652L16.138 0.174732L16.7486 0.261604L17.447 0.436336L18.145 0.523703L19.5413 0.873168L20.1524 1.0474ZM8.80715 24L6.71234 23.7379L6.0144 23.5637L5.40333 23.4763L3.30901 22.9521L3.22164 22.3415L3.04691 21.6436L2.78531 20.3346L2.61107 19.6361L2.17424 16.145V15.5344L2.08737 14.8364V14.138L2 13.4401V10.6473L2.08737 9.94887V9.25093L2.17424 8.55299V7.85455L2.34897 6.45818L2.43634 5.75975L2.61107 4.36337L2.78531 3.75279L2.87267 3.05436L3.04691 2.35642L3.22164 1.74584L3.30901 1.0474L5.40333 0.523703L6.0144 0.436336L6.71234 0.261604L8.80715 0V2.79275L8.02184 2.87963L7.58551 2.96748L7.23654 3.05436L6.45073 3.22909L5.66543 3.49119L5.40333 4.5381L4.88012 7.68032L4.79275 8.72723L4.70539 9.862V10.9089L4.61802 12.0437L4.70539 13.0906V14.7491L4.79275 15.2728V15.796L4.96699 16.8439L5.05436 17.4545L5.14172 17.8913L5.2286 18.5019L5.49069 20.073L5.66543 20.5962L6.45073 20.7709L6.7997 20.8578L7.23654 20.9452L7.58551 21.0325L8.45768 21.2068H8.80715V24Z" fill="#2C59A5"/>
<path fill-rule="evenodd" clip-rule="evenodd" d="M12.9963 6.02173L12.6474 7.1565L12.2979 8.20341L11.9489 9.33769L11.6 10.3856L11.251 9.33769L10.8142 8.20341L10.5526 7.1565L10.2036 6.1091H9.59251L8.37087 6.28333L7.84717 6.45807L8.0219 8.02917L8.19614 8.81448L8.37087 9.25082V9.59979L8.63248 10.3856L8.80721 11.1709L9.06931 11.9562L9.33091 12.6546L9.67988 13.5273L9.94149 14.2253L10.2909 14.9232L10.6399 15.709L11.3379 17.1054L11.7747 17.8033L12.211 18.5017H12.8216L13.52 18.4144H13.869L14.218 18.3265L14.829 18.2396L14.3927 17.1927L13.869 16.1448L13.3453 15.0111L12.909 13.8763L13.3453 13.0031L13.7816 12.0436L14.1311 11.1709L14.3927 10.7346L14.567 10.2109L14.829 9.25082L15.178 8.37815L15.3528 7.41811L15.6144 6.45807L15.2649 6.3707L15.0033 6.28333L14.3053 6.19597L13.6943 6.1091L12.9963 6.02173Z" fill="#2C59A5"/>
</g>
<defs>
<clipPath id="clip0_3878_12372">
<rect width="24" height="24" fill="white"/>
</clipPath>
</defs>
</svg>
