<svg viewBox="0 0 24 24" fill="none" xmlns="http://www.w3.org/2000/svg">
<g clip-path="url(#clip0_912_40352)">
<path d="M11.9249 0.357022C11.7103 0.36963 11.5004 0.425231 11.3077 0.520522L2.94895 4.50752C2.51245 4.71527 2.1952 5.11052 2.08645 5.58152L0.0404493 14.5298C-0.0570507 14.9498 0.0216993 15.39 0.265449 15.75C0.293949 15.7935 0.323949 15.8355 0.355449 15.876L6.13045 23.0565C6.4357 23.4315 6.89395 23.6468 7.37695 23.6445H16.6395C17.1239 23.6453 17.5829 23.4195 17.8874 23.0498L23.6594 15.8678C23.9624 15.4928 24.0757 14.9978 23.9594 14.5283L21.9 5.57252C21.7912 5.10152 21.4724 4.70627 21.0374 4.49852L12.6922 0.521272C12.4517 0.402666 12.1854 0.346196 11.9174 0.357022H11.9249Z" fill="#326CE5"/>
<path d="M12.0015 3.40649C11.7135 3.42674 11.4952 3.67349 11.5102 3.96149V4.10249C11.5237 4.26224 11.5477 4.42049 11.5792 4.57724C11.6252 4.87741 11.6418 5.18135 11.6287 5.48474C11.6002 5.58449 11.5432 5.67449 11.4652 5.74349L11.454 5.95499C11.1502 5.98049 10.8487 6.02699 10.5517 6.09449C9.30224 6.37649 8.16449 7.02449 7.28624 7.95824L7.10624 7.83074C7.00724 7.86074 6.90074 7.84949 6.80999 7.80074C6.56655 7.62056 6.34124 7.4171 6.13724 7.19324C6.03477 7.0708 5.92534 6.95436 5.80949 6.84449L5.69849 6.75599C5.59949 6.67649 5.47799 6.63074 5.35124 6.62474C5.2756 6.62073 5.20009 6.63468 5.13087 6.66544C5.06165 6.6962 5.0007 6.74291 4.95299 6.80174C4.78349 7.03949 4.83899 7.36874 5.07599 7.53899L5.17949 7.62149C5.31272 7.71013 5.45095 7.79102 5.59349 7.86374C5.85899 8.01149 6.10949 8.18474 6.34199 8.38874C6.40147 8.47355 6.43602 8.57332 6.44174 8.67674L6.60524 8.82674C5.72249 10.1512 5.36024 11.7555 5.58674 13.3312L5.37674 13.3912C5.32199 13.4782 5.24924 13.5525 5.16224 13.6072C4.86925 13.6855 4.56933 13.735 4.26674 13.755C4.10615 13.7583 3.94589 13.7708 3.78674 13.7925L3.65399 13.8225H3.63899C3.54687 13.8353 3.4601 13.8734 3.38835 13.9326C3.31659 13.9917 3.26267 14.0697 3.23259 14.1577C3.2025 14.2457 3.19743 14.3403 3.21793 14.431C3.23844 14.5217 3.28372 14.605 3.34874 14.6715C3.41436 14.7377 3.4971 14.7843 3.58769 14.8061C3.67828 14.828 3.77317 14.8242 3.86174 14.7952H3.87149L4.00649 14.7802C4.15874 14.7352 4.30874 14.6797 4.45499 14.6167C4.73624 14.5042 5.02799 14.418 5.32649 14.3617C5.42999 14.3677 5.52899 14.403 5.61299 14.463L5.83799 14.4255C6.32549 15.9382 7.34999 17.22 8.71799 18.0277L8.62649 18.219C8.66849 18.3067 8.68424 18.4042 8.67149 18.501C8.54774 18.7875 8.39624 19.062 8.21924 19.32C8.12214 19.448 8.03249 19.5814 7.95074 19.7197L7.88699 19.8547C7.84074 19.935 7.81756 20.0264 7.82001 20.119C7.82246 20.2116 7.85045 20.3017 7.90089 20.3794C7.95133 20.457 8.02225 20.5193 8.10582 20.5592C8.1894 20.5991 8.28238 20.6151 8.37449 20.6055C8.46682 20.5951 8.55446 20.5593 8.62768 20.5021C8.70089 20.4449 8.75682 20.3686 8.78924 20.2815L8.85149 20.154C8.90849 20.004 8.95649 19.851 8.99549 19.6965C9.12824 19.3687 9.20024 19.017 9.38174 18.7995C9.44106 18.7437 9.51581 18.7071 9.59624 18.6945L9.70874 18.4897C11.1917 19.0597 12.8325 19.0637 14.3182 18.501L14.418 18.6922C14.52 18.7072 14.6115 18.7635 14.673 18.846C14.814 19.1145 14.928 19.3957 15.015 19.686C15.0547 19.8414 15.1032 19.9944 15.1605 20.1442L15.2227 20.2717C15.2555 20.3585 15.3116 20.4345 15.3848 20.4913C15.4581 20.5481 15.5456 20.5836 15.6377 20.5938C15.7299 20.6039 15.8231 20.5884 15.9069 20.5489C15.9908 20.5094 16.0621 20.4475 16.113 20.37C16.1634 20.292 16.1911 20.2016 16.1933 20.1088C16.1954 20.016 16.1717 19.9244 16.125 19.8442L16.0597 19.7092C15.978 19.5714 15.8883 19.4385 15.7912 19.311C15.6187 19.062 15.4702 18.7965 15.3412 18.5182C15.3292 18.4674 15.3275 18.4146 15.3363 18.3631C15.345 18.3115 15.3641 18.2623 15.3922 18.2182C15.3602 18.1528 15.3324 18.0854 15.309 18.0165C16.674 17.2027 17.694 15.9165 18.1762 14.4015L18.3892 14.439C18.4657 14.3692 18.5662 14.3325 18.669 14.3355C18.9667 14.3925 19.2585 14.4855 19.5405 14.5905C19.6867 14.658 19.8367 14.715 19.989 14.763C20.025 14.7727 20.0775 14.781 20.118 14.7907H20.1277C20.2163 14.8193 20.311 14.8228 20.4014 14.8007C20.4917 14.7787 20.5742 14.7319 20.6396 14.6658C20.705 14.5996 20.7507 14.5166 20.7717 14.426C20.7927 14.3353 20.7881 14.2407 20.7585 14.1525C20.7282 14.0644 20.674 13.9865 20.6019 13.9274C20.5299 13.8683 20.4428 13.8304 20.3505 13.818L20.205 13.7835C20.0458 13.7618 19.8856 13.7493 19.725 13.746C19.422 13.7265 19.122 13.677 18.8295 13.5982C18.7395 13.548 18.6645 13.473 18.6135 13.3822L18.411 13.3222C18.6269 11.7472 18.257 10.1478 17.3715 8.82749L17.5485 8.66399C17.541 8.56124 17.5747 8.45924 17.6415 8.38049C17.8717 8.18249 18.1215 8.00774 18.384 7.85849C18.5265 7.78574 18.6647 7.70486 18.798 7.61624L18.9075 7.52774C18.9881 7.4777 19.0529 7.40586 19.0944 7.32052C19.1359 7.23519 19.1524 7.13985 19.1419 7.04553C19.1315 6.95122 19.0946 6.86179 19.0354 6.78759C18.9763 6.71339 18.8974 6.65745 18.8077 6.62624C18.7182 6.59508 18.6217 6.58988 18.5293 6.61124C18.4369 6.63261 18.3525 6.67967 18.2857 6.74699L18.1747 6.83549C18.0589 6.94539 17.9495 7.06183 17.847 7.18424C17.649 7.41074 17.43 7.61699 17.1922 7.80149C17.0963 7.84056 16.9913 7.85199 16.8892 7.83449L16.6995 7.96949C15.6045 6.82199 14.1292 6.10949 12.5482 5.96699C12.5482 5.89199 12.5385 5.77949 12.537 5.74424C12.4522 5.68574 12.393 5.59649 12.3735 5.49524C12.3631 5.19236 12.3822 4.88918 12.4305 4.58999C12.4627 4.43249 12.4852 4.27499 12.4995 4.11524V3.96524C12.5145 3.67724 12.297 3.43049 12.0082 3.41024L12.0015 3.40649ZM11.376 7.28099L11.226 9.90074H11.2147C11.2072 10.0627 11.112 10.2007 10.9657 10.2787C10.8195 10.3567 10.6462 10.3335 10.5157 10.2382L8.36699 8.71574C9.05091 8.04399 9.90892 7.57667 10.8442 7.36649C11.0197 7.32899 11.1967 7.30049 11.3745 7.28099H11.376ZM12.627 7.28099C13.7557 7.42124 14.8065 7.92824 15.6195 8.72399L13.491 10.2367C13.3597 10.3417 13.1797 10.3627 13.0275 10.2907C12.8752 10.2187 12.7777 10.0657 12.7755 9.89774L12.627 7.28099ZM7.58699 9.70124L9.55199 11.4547V11.466C9.67424 11.5725 9.72749 11.7382 9.69149 11.8965C9.65549 12.0547 9.53399 12.18 9.37874 12.2227V12.2302L6.85724 12.9555C6.73247 11.8195 6.98948 10.6742 7.58774 9.70049L7.58699 9.70124ZM16.4017 9.70124C16.9987 10.6725 17.2627 11.8117 17.1532 12.9465L14.628 12.219V12.2092C14.4705 12.1665 14.3505 12.0412 14.3152 11.883C14.28 11.7247 14.3325 11.5605 14.4547 11.4525L16.4047 9.70724L16.4017 9.70124ZM11.5987 11.5912H12.4027L12.894 12.2152L12.7155 12.9952L11.9932 13.3425L11.2695 12.9952L11.0992 12.2152L11.5987 11.5912ZM14.1742 13.7197C14.208 13.716 14.2492 13.716 14.2755 13.7197L16.8757 14.1585C16.5007 15.2385 15.7605 16.161 14.7945 16.7782L13.7895 14.3452C13.7619 14.28 13.7503 14.209 13.7558 14.1383C13.7613 14.0677 13.7837 13.9994 13.8212 13.9392C13.8586 13.879 13.9099 13.8286 13.9708 13.7924C14.0317 13.7562 14.1005 13.7351 14.1712 13.731L14.1742 13.7197ZM9.80699 13.731C9.95399 13.7332 10.0897 13.809 10.17 13.932C10.2502 14.055 10.263 14.2095 10.2052 14.3445V14.3542L9.20624 16.7677C8.24999 16.155 7.52399 15.2437 7.13774 14.175L9.71549 13.7377C9.74399 13.7347 9.77324 13.7347 9.80249 13.7377L9.80699 13.731ZM11.985 14.781C12.0669 14.7784 12.148 14.7986 12.2191 14.8394C12.2902 14.8802 12.3486 14.94 12.3877 15.012H12.3975L13.668 17.3047L13.1602 17.4547C12.2257 17.6685 11.25 17.6182 10.3417 17.3092L11.6167 15.0165C11.694 14.8815 11.8365 14.799 11.9917 14.7952L11.985 14.781Z" fill="white" stroke="white" stroke-width="0.11"/>
</g>
<defs>
<clipPath id="clip0_912_40352">
<rect width="24" height="24" fill="white"/>
</clipPath>
</defs>
</svg>
