<svg viewBox="0 0 18 24" fill="none" xmlns="http://www.w3.org/2000/svg">
<g clip-path="url(#clip0_912_40371)">
<path d="M0.379974 0.457071C0.340349 0.550601 0.30283 0.671586 0.267949 0.81746L0.242292 0.931493C0.23391 0.971032 0.225701 1.01209 0.217674 1.05462L0.194146 1.1866L0.171758 1.32718L0.150559 1.47614L0.1306 1.63324L0.11193 1.79822L0.0945996 1.97085C0.0918256 2.00024 0.0891095 2.02995 0.0864524 2.05995L0.071225 2.24361L0.0574621 2.43431L0.0452136 2.63181C0.0433011 2.66529 0.0414539 2.69903 0.0396729 2.73305L1.26307 3.32515C1.24456 2.61091 1.26756 1.93553 1.3319 1.31501L1.34451 1.20441L1.33579 1.30574L1.32492 1.47326L1.32093 1.55319L1.31423 1.73554L1.31172 1.8381L1.30899 2.06628L1.30937 2.25785L1.31225 2.46719L1.31575 2.61673L1.32366 2.85616L1.33086 3.02595L1.33974 3.20396C1.34137 3.23432 1.34307 3.26502 1.34485 3.29607C1.57272 3.11025 1.84565 2.86633 2.12946 2.59968L2.31991 2.41894C2.35179 2.38839 2.38372 2.35765 2.41564 2.32678L2.60671 2.14032L2.79539 1.95295L2.97943 1.76701L3.15657 1.58483C2.96083 1.18493 2.74974 0.891109 2.55339 0.676495L2.48853 0.607854C2.4457 0.563999 2.40377 0.523908 2.36307 0.487287L2.30296 0.434919L2.24494 0.387533C2.22598 0.372543 2.2074 0.358347 2.18925 0.344908L2.13614 0.306822L2.08586 0.273055L2.01627 0.230017L1.95443 0.19545L1.88548 0.161249L1.83377 0.139011L1.73941 0.104904L1.67069 0.082861L1.6036 0.0639078L1.55251 0.0510593L1.49699 0.0386252C1.4874 0.0366152 1.47765 0.0346434 1.46775 0.0327201L1.40664 0.0218473L1.3425 0.0126419C1.00428 -0.0297487 0.567338 0.0146976 0.379974 0.457071Z" fill="url(#paint0_linear_912_40371)"/>
<path d="M1.58319 6.93651C1.52672 6.52941 1.47517 6.129 1.42853 5.7353C1.39069 5.40837 1.3597 5.08629 1.33433 4.76736L1.31257 4.48145C1.31219 4.4739 1.31198 4.4666 1.31206 4.45967C1.28531 4.072 1.26594 3.69438 1.2573 3.32435L0.0363623 2.7356L0.033032 2.81041L0.0248346 2.96575C0.0126614 3.25825 0.00362386 3.56908 0.00107267 3.89576C-0.00190886 4.26401 0.00159599 4.64812 0.00823644 5.05055C0.016875 5.42058 0.032 5.80647 0.0520435 6.19906C0.0668917 6.45111 0.0831232 6.70504 0.101776 6.96227L0.124194 7.25975L1.7575 8.08721L1.69991 7.70174L1.58319 6.93651Z" fill="url(#paint1_linear_912_40371)"/>
<path d="M3.94568 16.4215L3.97096 16.5086L4.13318 17.0598C4.15648 17.1381 4.18009 17.2168 4.20411 17.2958L4.28153 17.5464L4.30799 17.6366C4.31268 17.6513 4.3177 17.6659 4.32336 17.6807L4.58648 18.5239C4.8195 18.4757 5.10356 18.5626 5.4036 18.6936L5.52439 18.7481C5.30351 18.4822 4.99776 18.3045 4.6324 18.2633C5.63275 17.5961 6.29091 16.7367 6.19844 15.7116C6.18857 15.6208 6.17625 15.5268 6.15811 15.4318C6.14301 15.8097 5.99213 16.0871 5.55496 16.3836L5.50111 16.4193C5.95328 15.6234 6.07775 15.0835 6.02429 14.3854C6.01104 14.2199 5.99042 14.0443 5.95995 13.8552C5.81535 14.8945 5.25721 15.5671 4.44089 15.9652L3.94568 16.4215Z" fill="url(#paint2_linear_912_40371)"/>
<path d="M3.35979 15.2015L3.2559 14.812L3.04694 14.0236C2.9478 13.6427 2.85201 13.2593 2.75711 12.8701C2.66221 12.4808 2.57066 12.0892 2.47912 11.6975C2.386 11.2967 2.2987 10.8967 2.21474 10.4943L2.13185 10.0965L1.97272 9.30053C1.94428 9.15642 1.9183 9.01566 1.89322 8.86908C1.84754 8.6242 1.80521 8.37686 1.76288 8.12952L1.75415 8.08952L0.130005 7.2605L0.135322 7.31197C0.135938 7.32088 0.136215 7.32984 0.135846 7.3387C0.168616 7.70649 0.200495 8.08008 0.243994 8.45546C0.286601 8.83665 0.335019 9.21873 0.391706 9.60506C0.439877 9.9306 0.491399 10.2537 0.545381 10.5801L0.580764 10.7759C0.655557 11.1798 0.735484 11.5697 0.822328 11.9339C0.91947 12.3472 1.02353 12.7349 1.12869 13.0959C1.1994 13.3328 1.26854 13.5604 1.33946 13.7765L1.40238 13.9585L1.53251 14.3205C1.68775 14.7428 1.85975 15.1527 2.04515 15.5529L3.68672 16.3846C3.59923 16.0827 3.51844 15.7759 3.42939 15.4649L3.3839 15.2906L3.35979 15.2015Z" fill="url(#paint3_linear_912_40371)"/>
<path d="M2.06955 15.6073C2.26739 16.0305 2.48319 16.4405 2.72143 16.8341L2.85354 17.0478C2.698 16.9852 2.50128 16.954 2.31014 16.9401L2.21525 16.9345C2.19958 16.9338 2.18401 16.9332 2.16856 16.9327L2.0775 16.9307L1.94914 16.9311L1.83457 16.9345L1.73816 16.9395L1.6032 16.9506C1.60207 16.9507 1.60171 16.9509 1.60171 16.9509C2.43175 17.2388 3.15966 17.5913 3.61884 18.1256C3.43636 18.3266 3.09477 18.4793 2.66535 18.6037C2.98505 18.6384 3.22861 18.6243 3.40423 18.5956L3.47537 18.5826C3.48654 18.5803 3.49736 18.5779 3.50786 18.5755L3.56678 18.5609L3.61775 18.546L3.67959 18.5245L3.71128 18.5115C3.44755 18.7313 3.28253 19.106 3.14535 19.5259L3.09798 19.6758C3.09024 19.7011 3.08256 19.7264 3.07494 19.7519C3.42419 19.1811 3.77061 18.8031 4.10796 18.6586C4.48472 19.9079 4.92045 21.2375 5.39864 22.6249L5.6223 23.2693C5.69782 23.4855 5.77428 23.7029 5.85163 23.9215C5.96285 23.778 5.9753 23.6193 5.92876 23.4576L5.77585 23.0256L5.60163 22.5208L5.33179 21.7202L5.11067 21.0489L4.86633 20.2914L4.63303 19.5524L4.41888 18.8599L4.26135 18.3413L4.13314 17.9131C4.11599 17.857 4.10032 17.7997 4.08343 17.7419L4.03514 17.5829L3.89669 17.1045L3.75588 16.6124L3.69256 16.3856L3.6901 16.3822L2.04853 15.5505C2.05226 15.565 2.05638 15.5769 2.06137 15.5888L2.06955 15.6073Z" fill="url(#paint4_linear_912_40371)"/>
<path d="M1.94843 8.12228L1.97755 8.28137C1.99859 8.38966 2.01815 8.49904 2.03894 8.60905L2.21652 9.52018L2.28175 9.83748L2.37677 10.2859C2.39297 10.3616 2.40933 10.4379 2.42578 10.5148C2.47481 10.7418 2.52649 10.9723 2.58064 11.2078L2.69216 11.6856L2.80314 12.1516C2.82213 12.2304 2.84135 12.3096 2.86079 12.3892L2.97999 12.8715L3.09917 13.3403C3.15966 13.5772 3.22191 13.8179 3.2877 14.0635C3.33571 14.2448 3.38555 14.4286 3.43652 14.6149L3.60726 15.2365L3.73626 15.6934L3.86947 16.16C3.89204 16.2385 3.9148 16.3172 3.93776 16.3963C3.93932 16.4055 3.94089 16.4146 3.94581 16.4213L4.44102 15.9651L4.42902 15.97L4.40259 15.9829C4.99027 15.4279 5.49393 14.3158 5.60905 13.3136C5.66205 12.8519 5.65716 12.3605 5.59371 11.8245C5.54797 11.425 5.46669 11.0052 5.355 10.5509C5.25765 10.1584 5.13726 9.74147 4.99051 9.30268C4.89964 9.48795 4.77056 9.67034 4.61242 9.84827L4.52666 9.94215L4.49731 9.97267L4.43508 10.0351C4.86853 9.36127 4.92008 8.63772 4.79152 7.88653C4.71273 8.10934 4.55801 8.43944 4.30138 8.73606C4.26855 8.77562 4.22991 8.81429 4.19127 8.85296C4.18457 8.85788 4.17896 8.86429 4.17199 8.87093L4.16022 8.88091C4.30403 8.64131 4.4103 8.4138 4.47836 8.18339C4.48922 8.15136 4.4975 8.11893 4.50492 8.08637L4.51562 8.03747C4.53302 7.96283 4.54461 7.8873 4.5562 7.81177L4.57267 7.66562C4.57917 7.57965 4.58103 7.49129 4.57681 7.40158L4.56551 7.23646C4.5644 7.22429 4.56296 7.21217 4.56087 7.19996L4.54361 7.09423C4.54071 7.07727 4.53765 7.06061 4.53422 7.04422C4.50062 6.84792 4.46375 6.67296 4.42571 6.51779L4.39008 6.3785L4.35786 6.26085L4.31598 6.12169L4.26156 5.95862C4.2558 5.94222 4.25004 5.92647 4.24417 5.91145L4.21131 5.82921C4.20076 5.80391 4.19066 5.78078 4.18108 5.75992L4.15404 5.70435C4.14883 5.72535 4.14214 5.74745 4.13323 5.76965L4.1181 5.8029C4.01586 6.04293 3.77802 6.37216 3.56114 6.60352C3.55779 6.60598 3.55444 6.60844 3.55355 6.61425L3.50881 6.65892C3.50118 6.66701 3.49361 6.67543 3.48632 6.68422L3.4948 6.66768L1.93457 8.09637C1.94776 8.10731 1.94933 8.11647 1.94843 8.12228Z" fill="url(#paint5_linear_912_40371)"/>
<path d="M1.34485 3.296C1.35115 3.40996 1.3587 3.52873 1.36739 3.65219L1.3863 3.90534C1.3897 3.94857 1.39321 3.9923 1.39685 4.03654L1.42006 4.30804C1.42416 4.3543 1.42836 4.40105 1.43268 4.44829L1.43634 4.49335C1.43722 4.50053 1.43844 4.50766 1.4403 4.51488C1.45351 4.65406 1.4682 4.79722 1.48445 4.94486L1.51906 5.24625C1.53131 5.34879 1.54427 5.45347 1.55798 5.56042L1.6229 6.05063C1.65325 6.27319 1.68612 6.50376 1.72287 6.74422L1.75119 6.92645C1.77919 7.11213 1.81027 7.30199 1.84317 7.49697L1.94606 8.09815L3.50628 6.66946C3.83162 6.08009 3.90275 5.71338 3.89832 5.25777C3.89678 5.1661 3.89247 5.07066 3.88643 4.97286L3.87985 4.87433C3.85489 4.47504 3.8069 4.0514 3.73881 3.64251C3.67474 3.24613 3.59638 2.86541 3.50665 2.53943C3.44981 2.32851 3.3894 2.14084 3.32789 1.97976C3.27197 1.84035 3.21427 1.71256 3.15568 1.59058L2.97878 1.77118C2.94865 1.80169 2.91824 1.83236 2.88758 1.86316L2.70112 2.04898L2.51109 2.23533L2.31976 2.41984C2.28789 2.45031 2.25606 2.4806 2.22431 2.51067L2.03525 2.68798C1.78556 2.91975 1.54741 3.13083 1.34485 3.296Z" fill="url(#paint6_linear_912_40371)"/>
<path d="M16.3661 0.763423C16.3161 0.784039 16.2616 0.80992 16.203 0.840896L16.1119 0.891158C16.0492 0.927185 15.9823 0.96822 15.9117 1.01409L15.8029 1.08651L15.6886 1.16605L15.5689 1.25259L15.4441 1.346C15.4229 1.36214 15.4015 1.37855 15.3798 1.39524L15.2477 1.49872L15.1109 1.60875L14.9696 1.7252L14.8241 1.84794L14.6744 1.97685L14.5209 2.11179L14.3637 2.25264C14.3372 2.2766 14.3106 2.3008 14.2838 2.32524L14.7982 3.77391C15.3547 3.18011 15.9137 2.65146 16.4622 2.201L16.6552 2.04445L16.6691 2.03377L16.5364 2.14175L16.4063 2.25426L16.2652 2.38184L16.1314 2.50724L16.0189 2.61546L15.9382 2.69456L15.7633 2.86989L15.6203 3.01682L15.4143 3.23397L15.3047 3.35189L15.1907 3.47618L15.0118 3.67479L14.8872 3.81547C15.0151 3.82763 15.1554 3.83815 15.3048 3.84711L15.5352 3.85938L15.7769 3.86937L16.0275 3.87713L16.2845 3.88272L16.5455 3.8862C16.5892 3.88661 16.633 3.88693 16.6768 3.88717L16.9393 3.8876C16.9829 3.8875 17.0265 3.88733 17.07 3.88707L17.3286 3.88458C17.3713 3.88401 17.4137 3.88335 17.4559 3.88263L17.7052 3.87735C17.9099 3.26728 17.9567 2.77673 17.9409 2.41043L17.9354 2.31769L17.9274 2.23061C17.9259 2.21657 17.9243 2.20277 17.9226 2.1892L17.9117 2.11064L17.8992 2.03778C17.897 2.02611 17.8948 2.01469 17.8925 2.0035L17.8784 1.93923L17.8637 1.88071L17.8488 1.82796L17.8341 1.78099L17.8065 1.7045L17.7842 1.65137L17.731 1.54178L17.7 1.48329L17.6741 1.43733L17.6441 1.38685L17.61 1.33274L17.5719 1.27592L17.5299 1.21726C17.2952 0.901156 16.8944 0.545448 16.3661 0.763423Z" fill="url(#paint7_linear_912_40371)"/>
<path d="M12.1867 6.93525C12.4647 6.56266 12.7413 6.19937 13.0166 5.84538C13.3032 5.47881 13.5924 5.12687 13.8849 4.78491C13.9023 4.7637 13.9197 4.74249 13.9363 4.72594C14.2228 4.3926 14.5073 4.07322 14.7943 3.76848L14.2792 2.32446L14.2171 2.38204L14.0871 2.50058C13.8449 2.72638 13.5906 2.96942 13.329 3.23038C13.1815 3.37741 13.0322 3.52893 12.8804 3.68485L12.5735 4.00251C12.5217 4.05642 12.4697 4.11082 12.4173 4.16569C12.1302 4.47043 11.8358 4.7931 11.54 5.12507C11.3517 5.33977 11.163 5.55708 10.9737 5.77897L10.7554 6.03626L11.4128 8.00007L11.6727 7.644L12.1867 6.93525Z" fill="url(#paint8_linear_912_40371)"/>
<path d="M6.55262 16.4479L6.45487 16.6284L6.19641 17.1107C6.15297 17.1923 6.10944 17.2744 6.06597 17.3571L5.9292 17.6203C5.90309 17.6688 5.87766 17.7125 5.8562 17.7617L5.7124 18.0391L5.39807 18.6495C5.65408 18.8154 5.82492 19.173 5.97498 19.5752C6.00837 19.1857 5.90345 18.7997 5.64206 18.4762C6.97744 18.7339 8.1901 18.565 8.93017 17.6663C8.9943 17.5854 9.05911 17.4999 9.11996 17.409C8.80663 17.7021 8.46373 17.8053 7.87316 17.6951L7.80651 17.682C8.80286 17.4005 9.33202 17.0648 9.84359 16.4604C9.96448 16.3166 10.0874 16.1588 10.2131 15.9824C9.27089 16.7042 8.28721 16.8022 7.31378 16.4741L6.55262 16.4479Z" fill="url(#paint9_linear_912_40371)"/>
<path d="M6.99876 15.0914L7.27593 14.6044L7.73412 13.8037C7.95697 13.4183 8.18448 13.0335 8.41732 12.6448C8.65017 12.2561 8.88766 11.8681 9.12515 11.48C9.36866 11.0834 9.61614 10.692 9.86827 10.3014C10.1151 9.91472 10.3712 9.52942 10.6219 9.14808C10.7135 9.00947 10.8045 8.87552 10.9007 8.73759C11.0585 8.50416 11.221 8.27142 11.3834 8.03867L11.4082 7.99954L10.7594 6.04175L10.7228 6.08741C10.7162 6.09507 10.7093 6.1025 10.7019 6.10934C10.4361 6.43145 10.1649 6.75753 9.90171 7.09428C9.63315 7.43499 9.36855 7.78104 9.10725 8.13708C8.88737 8.43742 8.67215 8.73845 8.45624 9.04413L8.32922 9.2298C8.06847 9.61443 7.82303 9.9918 7.60359 10.354C7.35338 10.7639 7.12916 11.1586 6.92695 11.5328C6.79571 11.7797 6.67048 12.0179 6.55591 12.2482C6.46077 12.4433 6.36958 12.6437 6.27909 12.8395C6.06857 13.3028 5.8813 13.7694 5.71265 14.2388L6.37334 16.2126L6.50193 15.9783L6.76486 15.507C6.80892 15.4278 6.85298 15.3482 6.89683 15.2679L6.99876 15.0914Z" fill="url(#paint10_linear_912_40371)"/>
<path d="M5.68908 14.3019C5.51209 14.7998 5.36003 15.3013 5.23912 15.8074L5.17571 16.0844C5.11621 15.9473 5.0206 15.8055 4.91282 15.6718L4.84688 15.5926C4.83571 15.5796 4.82447 15.5667 4.81318 15.5539L4.74502 15.4787L4.67681 15.407L4.6097 15.3393L4.51362 15.2467L4.42649 15.1665L4.33093 15.0826L4.24499 15.0118C4.6844 15.903 4.99029 16.7652 4.93542 17.5601C4.62886 17.5769 4.2325 17.4285 3.78797 17.1875C3.97931 17.4221 4.15502 17.5877 4.30322 17.7038L4.36962 17.7539C4.38035 17.7617 4.3909 17.7692 4.40127 17.7765L4.46133 17.8169L4.51683 17.8513L4.56752 17.8802L4.61313 17.9041L4.65341 17.9232L4.68809 17.9382C4.69339 17.9403 4.69845 17.9423 4.70326 17.9442C4.33076 17.9129 3.91793 18.0696 3.49149 18.2857L3.34888 18.3598L3.20547 18.4372C3.94016 18.2551 4.51936 18.2261 4.90572 18.3778C4.71596 18.7371 4.52496 19.1048 4.33282 19.4803L4.04375 20.0494C3.6089 20.9115 3.1685 21.8115 2.72364 22.7419L2.42641 23.3666C2.32712 23.5763 2.22762 23.7874 2.12793 23.9999C2.33148 23.9727 2.46755 23.8549 2.55861 23.6877L2.89518 22.9741L3.20494 22.3324L3.60075 21.5266L3.95038 20.8262L4.29677 20.1417L4.62585 19.4997L5.08254 18.6217L5.40681 18.0072L5.51826 17.7977L5.61432 17.6203L5.70173 17.454L5.83493 17.2081L6.10809 16.7065C6.15437 16.6218 6.20102 16.5366 6.24805 16.4508L6.37725 16.2179L6.37793 16.2133L5.71724 14.2395C5.70877 14.2541 5.70266 14.2669 5.69714 14.2805L5.68908 14.3019Z" fill="url(#paint11_linear_912_40371)"/>
<path d="M11.5383 8.18016L11.4354 8.33136C11.3663 8.43526 11.2951 8.53885 11.2244 8.64393L10.8855 9.15504L10.6435 9.51849L10.5821 9.61262C10.4902 9.75355 10.3979 9.89681 10.3047 10.0423L10.0217 10.4854C9.83388 10.781 9.64476 11.0855 9.4516 11.4009L9.30592 11.6396C9.07445 12.019 8.83559 12.4163 8.59536 12.823L8.31886 13.295C8.17937 13.5338 8.03819 13.777 7.89603 14.027C7.8117 14.1743 7.72704 14.3238 7.6418 14.4752L7.22131 15.2252L7.09242 15.4588L6.83083 15.9349C6.74296 16.0954 6.65454 16.2577 6.56589 16.4214C6.55987 16.43 6.55386 16.4387 6.55249 16.448L7.31365 16.4741C7.30037 16.4674 7.28642 16.4654 7.2685 16.458C8.18259 16.4781 9.47162 15.983 10.3606 15.2677C10.77 14.9381 11.1565 14.5387 11.5313 14.0568C11.8119 13.6988 12.08 13.2963 12.351 12.8419C12.5846 12.4485 12.8189 12.0172 13.0494 11.5474C12.829 11.6243 12.5802 11.6686 12.3115 11.6862L12.1679 11.6936C12.136 11.6953 12.1044 11.6949 12.0713 11.6949L12.0203 11.6957C12.9046 11.4976 13.521 10.9561 14.0144 10.2493C13.7739 10.366 13.3871 10.5088 12.9448 10.5437C12.887 10.5495 12.8251 10.5499 12.7633 10.5504C12.754 10.549 12.7444 10.5497 12.7335 10.5495L12.7161 10.5482C13.0222 10.4696 13.2885 10.3708 13.5264 10.2394C13.5606 10.2223 13.593 10.2028 13.6249 10.1824L13.6723 10.1516C13.7456 10.1053 13.815 10.0537 13.8843 10.0021L14.0137 9.89755C14.1118 9.81216 14.2065 9.71678 14.2934 9.61073L14.3489 9.54638C14.3577 9.5357 14.3661 9.5248 14.3742 9.51331L14.4443 9.41449C14.4554 9.39852 14.4662 9.38268 14.4764 9.36676C14.6081 9.17819 14.7192 9.00482 14.8131 8.8471L14.8523 8.78046C14.9032 8.69289 14.948 8.61395 14.9875 8.53897L15.0337 8.45072L15.1038 8.30876C15.1182 8.27932 15.1314 8.25123 15.143 8.22442L15.1634 8.17676L15.1982 8.09058C15.2085 8.06396 15.2174 8.03953 15.2248 8.01744L15.235 7.98608C15.2141 7.99886 15.1911 8.01133 15.1663 8.02212L15.1277 8.03687C14.8547 8.14886 14.4017 8.22493 14.0433 8.23886C14.0386 8.23818 14.034 8.2375 14.0286 8.24147L13.9571 8.24188C13.9445 8.24233 13.9318 8.24309 13.9189 8.24437L13.9389 8.2378L11.5477 8.14829C11.5497 8.16757 11.5437 8.1762 11.5383 8.18016Z" fill="url(#paint12_linear_912_40371)"/>
<path d="M14.8871 3.81543C14.8016 3.91217 14.7133 4.01378 14.6222 4.12008L14.4363 4.33889L14.243 4.56991L14.0094 4.852C14.0044 4.85848 13.9997 4.86519 13.9955 4.87249C13.8622 5.03587 13.7255 5.20705 13.5844 5.3871L13.3695 5.66398C13.3332 5.71128 13.2965 5.75917 13.2595 5.80766L12.9508 6.21586L12.749 6.48626C12.6468 6.62406 12.5427 6.76591 12.4366 6.91257L12.3297 7.06084C12.2226 7.20804 12.1149 7.3595 12.0054 7.51507L11.7838 7.83165L11.5557 8.1589L13.9468 8.24842C14.677 8.03245 15.0256 7.79376 15.384 7.42347C15.4556 7.34845 15.528 7.26819 15.6008 7.18466L15.6738 7.10012C15.9709 6.75885 16.2689 6.37968 16.5389 5.99642C16.8023 5.62643 17.0417 5.25768 17.2285 4.92397C17.3503 4.70902 17.4508 4.50995 17.5292 4.3314C17.595 4.17475 17.6501 4.02603 17.6998 3.88128L17.4518 3.88561L17.1967 3.88826L16.9371 3.88916L16.6752 3.88823C16.6315 3.88792 16.5878 3.88753 16.5442 3.88706L16.2837 3.88324L16.027 3.87742C15.9847 3.87627 15.9426 3.87504 15.9009 3.87372L15.6546 3.86473C15.6143 3.86305 15.5745 3.86128 15.5351 3.85941L15.3046 3.84709C15.1553 3.83811 15.015 3.82759 14.8871 3.81543Z" fill="url(#paint13_linear_912_40371)"/>
</g>
<defs>
<linearGradient id="paint0_linear_912_40371" x1="0.684327" y1="2.1134" x2="4.64966" y2="0.820329" gradientUnits="userSpaceOnUse">
<stop stop-color="#F69923"/>
<stop offset="0.3123" stop-color="#F79A23"/>
<stop offset="0.8383" stop-color="#E97826"/>
</linearGradient>
<linearGradient id="paint1_linear_912_40371" x1="0.371873" y1="23.8729" x2="5.2372" y2="4.55709" gradientUnits="userSpaceOnUse">
<stop offset="0.3233" stop-color="#9E2064"/>
<stop offset="0.6302" stop-color="#C92037"/>
<stop offset="0.7514" stop-color="#CD2335"/>
<stop offset="1" stop-color="#E97826"/>
</linearGradient>
<linearGradient id="paint2_linear_912_40371" x1="4.73524" y1="23.2647" x2="7.93141" y2="7.69858" gradientUnits="userSpaceOnUse">
<stop stop-color="#282662"/>
<stop offset="0.0954839" stop-color="#662E8D"/>
<stop offset="0.7882" stop-color="#9F2064"/>
<stop offset="0.9487" stop-color="#CD2032"/>
</linearGradient>
<linearGradient id="paint3_linear_912_40371" x1="1.20547" y1="22.8168" x2="8.27971" y2="5.61445" gradientUnits="userSpaceOnUse">
<stop offset="0.3233" stop-color="#9E2064"/>
<stop offset="0.6302" stop-color="#C92037"/>
<stop offset="0.7514" stop-color="#CD2335"/>
<stop offset="1" stop-color="#E97826"/>
</linearGradient>
<linearGradient id="paint4_linear_912_40371" x1="2.97401" y1="22.0217" x2="8.67044" y2="14.9243" gradientUnits="userSpaceOnUse">
<stop stop-color="#282662"/>
<stop offset="0.0954839" stop-color="#662E8D"/>
<stop offset="0.7882" stop-color="#9F2064"/>
<stop offset="0.9487" stop-color="#CD2032"/>
</linearGradient>
<linearGradient id="paint5_linear_912_40371" x1="3.41294" y1="25.8179" x2="8.61409" y2="1.19755" gradientUnits="userSpaceOnUse">
<stop offset="0.3233" stop-color="#9E2064"/>
<stop offset="0.6302" stop-color="#C92037"/>
<stop offset="0.7514" stop-color="#CD2335"/>
<stop offset="1" stop-color="#E97826"/>
</linearGradient>
<linearGradient id="paint6_linear_912_40371" x1="1.91439" y1="31.903" x2="6.8092" y2="3.40995" gradientUnits="userSpaceOnUse">
<stop offset="0.3233" stop-color="#9E2064"/>
<stop offset="0.6302" stop-color="#C92037"/>
<stop offset="0.7514" stop-color="#CD2335"/>
<stop offset="1" stop-color="#E97826"/>
</linearGradient>
<linearGradient id="paint7_linear_912_40371" x1="14.8926" y1="2.62092" x2="20.0392" y2="1.24918" gradientUnits="userSpaceOnUse">
<stop stop-color="#F69923"/>
<stop offset="0.3123" stop-color="#F79A23"/>
<stop offset="0.8383" stop-color="#E97826"/>
</linearGradient>
<linearGradient id="paint8_linear_912_40371" x1="7.30516" y1="24.7414" x2="17.7769" y2="5.5559" gradientUnits="userSpaceOnUse">
<stop offset="0.3233" stop-color="#9E2064"/>
<stop offset="0.6302" stop-color="#C92037"/>
<stop offset="0.7514" stop-color="#CD2335"/>
<stop offset="1" stop-color="#E97826"/>
</linearGradient>
<linearGradient id="paint9_linear_912_40371" x1="4.40528" y1="20.6254" x2="9.13402" y2="12.6831" gradientUnits="userSpaceOnUse">
<stop stop-color="#282662"/>
<stop offset="0.0954839" stop-color="#662E8D"/>
<stop offset="0.7882" stop-color="#9F2064"/>
<stop offset="0.9487" stop-color="#CD2032"/>
</linearGradient>
<linearGradient id="paint10_linear_912_40371" x1="6.23767" y1="23.3828" x2="16.857" y2="5.40698" gradientUnits="userSpaceOnUse">
<stop offset="0.3233" stop-color="#9E2064"/>
<stop offset="0.6302" stop-color="#C92037"/>
<stop offset="0.7514" stop-color="#CD2335"/>
<stop offset="1" stop-color="#E97826"/>
</linearGradient>
<linearGradient id="paint11_linear_912_40371" x1="3.7024" y1="21.7848" x2="9.52703" y2="13.119" gradientUnits="userSpaceOnUse">
<stop stop-color="#282662"/>
<stop offset="0.0954839" stop-color="#662E8D"/>
<stop offset="0.7882" stop-color="#9F2064"/>
<stop offset="0.9487" stop-color="#CD2032"/>
</linearGradient>
<linearGradient id="paint12_linear_912_40371" x1="3.53573" y1="23.3989" x2="15.7777" y2="3.78304" gradientUnits="userSpaceOnUse">
<stop offset="0.3233" stop-color="#9E2064"/>
<stop offset="0.6302" stop-color="#C92037"/>
<stop offset="0.7514" stop-color="#CD2335"/>
<stop offset="1" stop-color="#E97826"/>
</linearGradient>
<linearGradient id="paint13_linear_912_40371" x1="3.57659" y1="15.6271" x2="11.4167" y2="2.70581" gradientUnits="userSpaceOnUse">
<stop offset="0.3233" stop-color="#9E2064"/>
<stop offset="0.6302" stop-color="#C92037"/>
<stop offset="0.7514" stop-color="#CD2335"/>
<stop offset="1" stop-color="#E97826"/>
</linearGradient>
<clipPath id="clip0_912_40371">
<rect width="18" height="24" fill="white"/>
</clipPath>
</defs>
</svg>
