<svg  viewBox="0 0 24 24" fill="none" xmlns="http://www.w3.org/2000/svg">
<path d="M15.4635 12.3633H17.5451L16.5031 9.34727L15.4635 12.3633Z" fill="#9E9E9E"/>
<path fill-rule="evenodd" clip-rule="evenodd" d="M12 23C18.0751 23 23 18.0751 23 12C23 5.92487 18.0751 1 12 1C5.92487 1 1 5.92487 1 12C1 18.0751 5.92487 23 12 23ZM10.5439 7.89062V15H9.31836L6.12988 9.90723V15H4.9043V7.89062H6.12988L9.32812 12.9932V7.89062H10.5439ZM14.4775 7.89062L11.709 15.6104H10.7861L13.5596 7.89062H14.4775ZM17.0596 7.89062L19.7451 15H18.4561L17.8808 13.335H15.1286L14.5547 15H13.2705L15.9463 7.89062H17.0596Z" fill="#9E9E9E"/>
</svg>
