<svg width="24" height="24" viewBox="0 0 24 24" fill="none" xmlns="http://www.w3.org/2000/svg">
<g clip-path="url(#clip0_3878_12402)">
<path d="M24 6H0V17.8681H12.1319" fill="url(#paint0_linear_3878_12402)"/>
<path d="M11.8681 8.37357V13.9648L9.81091 8.37357H7.75377L6.01311 13.0153C5.80212 11.8549 4.58893 11.4329 3.63948 11.1164C3.00652 10.9054 2.3208 10.6417 2.3208 10.2725C2.3208 10.0087 2.69003 9.745 3.37575 9.79775C3.85047 9.8505 4.27245 9.8505 5.11641 10.2725L5.96036 8.8483C5.16915 8.42632 4.11421 8.21533 3.27025 8.21533C2.26805 8.21533 1.4241 8.53182 0.896626 9.05929C0.527395 9.42852 0.369154 9.90324 0.316406 10.4307C0.316406 11.1692 0.580143 11.6967 1.16036 12.1186C1.63509 12.4351 2.21531 12.6461 2.74278 12.8043C3.42849 13.0153 3.95597 13.2263 3.95597 13.5956C3.90322 14.0703 3.37575 14.1758 3.00652 14.1758C2.37355 14.2285 1.84608 14.123 1.05487 13.6483L0.316406 15.0725C1.10762 15.5472 1.95157 15.7582 2.95377 15.7582C3.63948 15.7582 4.69443 15.5472 5.27465 15.0197L5.16915 15.4945H7.17355L7.54278 14.5977C8.33399 14.8087 9.23069 14.8615 10.0219 14.5977L10.2856 15.4945H13.8725V13.3846H14.6109C16.4571 13.3846 17.5648 12.4879 17.5648 10.9054C17.5648 9.11204 16.5098 8.37357 14.2417 8.37357H11.8681ZM8.01751 13.0153L8.75597 10.6417H8.80871L9.54718 13.0153C9.0197 13.1736 8.49223 13.1736 8.01751 13.0153ZM13.8725 11.8021V9.90324H14.3999C15.0856 9.90324 15.6131 10.1142 15.6131 10.7999C15.6131 11.5384 15.0856 11.8021 14.3999 11.8021H13.8725Z" fill="white"/>
</g>
<defs>
<linearGradient id="paint0_linear_3878_12402" x1="0" y1="6" x2="0" y2="17.8681" gradientUnits="userSpaceOnUse">
<stop stop-color="#00AAEE"/>
<stop offset="1" stop-color="#0055AA"/>
</linearGradient>
<clipPath id="clip0_3878_12402">
<rect width="24" height="11.8681" fill="white" transform="translate(0 6)"/>
</clipPath>
</defs>
</svg>
